Untitled.ufo
<glyph name="A" format="1">
  <advance width="268"/>
  <unicode hex="0041"/>
  <outline>
    <contour>
      <point x="214" y="296" type="move"/>
      <point x="218" y="282" type="line"/>
      <point x="222" y="271" type="line"/>
      <point x="226" y="259" type="line"/>
      <point x="231" y="246" type="line"/>
      <point x="236" y="232" type="line"/>
      <point x="247" y="200" type="line"/>
      <point x="253" y="183" type="line"/>
      <point x="264" y="165" type="line"/>
      <point x="269" y="149" type="line"/>
      <point x="274" y="133" type="line"/>
      <point x="278" y="123" type="line"/>
      <point x="284" y="108" type="line"/>
      <point x="295" y="94" type="line"/>
      <point x="296" y="91" type="line"/>
      <point x="301" y="77" type="line"/>
      <point x="304" y="73" type="line"/>
      <point x="308" y="62" type="line"/>
      <point x="311" y="59" type="line"/>
      <point x="314" y="55" type="line"/>
      <point x="315" y="52" type="line"/>
      <point x="317" y="49" type="line"/>
      <point x="317" y="48" type="line"/>
      <point x="318" y="47" type="line"/>
      <point x="318" y="47" type="line"/>
    </contour>
    <contour>
      <point x="212" y="297" type="move"/>
      <point x="212" y="289" type="line"/>
      <point x="212" y="286" type="line"/>
      <point x="213" y="272" type="line"/>
      <point x="212" y="262" type="line"/>
      <point x="209" y="248" type="line"/>
      <point x="206" y="236" type="line"/>
      <point x="204" y="232" type="line"/>
      <point x="200" y="215" type="line"/>
      <point x="196" y="203" type="line"/>
      <point x="192" y="190" type="line"/>
      <point x="187" y="178" type="line"/>
      <point x="183" y="167" type="line"/>
      <point x="178" y="156" type="line"/>
      <point x="173" y="146" type="line"/>
      <point x="169" y="137" type="line"/>
      <point x="167" y="134" type="line"/>
      <point x="162" y="125" type="line"/>
      <point x="159" y="121" type="line"/>
      <point x="155" y="112" type="line"/>
      <point x="153" y="110" type="line"/>
      <point x="151" y="106" type="line"/>
      <point x="148" y="103" type="line"/>
      <point x="146" y="100" type="line"/>
      <point x="145" y="97" type="line"/>
      <point x="143" y="94" type="line"/>
      <point x="142" y="92" type="line"/>
      <point x="141" y="91" type="line"/>
      <point x="140" y="89" type="line"/>
      <point x="139" y="88" type="line"/>
      <point x="139" y="87" type="line"/>
      <point x="139" y="87" type="line"/>
      <point x="139" y="86" type="line"/>
      <point x="138" y="85" type="line"/>
      <point x="138" y="85" type="line"/>
    </contour>
    <contour>
      <point x="276" y="179" type="move"/>
      <point x="262" y="181" type="line"/>
      <point x="257" y="181" type="line"/>
      <point x="241" y="182" type="line"/>
      <point x="235" y="182" type="line"/>
      <point x="218" y="182" type="line"/>
      <point x="212" y="182" type="line"/>
      <point x="196" y="182" type="line"/>
      <point x="191" y="182" type="line"/>
      <point x="186" y="182" type="line"/>
      <point x="173" y="182" type="line"/>
      <point x="169" y="182" type="line"/>
      <point x="165" y="182" type="line"/>
      <point x="160" y="182" type="line"/>
      <point x="155" y="182" type="line"/>
      <point x="151" y="182" type="line"/>
      <point x="147" y="182" type="line"/>
      <point x="144" y="183" type="line"/>
      <point x="141" y="183" type="line"/>
      <point x="139" y="183" type="line"/>
      <point x="136" y="184" type="line"/>
      <point x="133" y="184" type="line"/>
      <point x="133" y="184" type="line"/>
    </contour>
  </outline>
</glyph>
<glyph name="B" format="1">
  <advance width="268"/>
  <unicode hex="0042"/>
  <outline>
    <contour>
      <point x="143" y="296" type="move"/>
      <point x="144" y="286" type="line"/>
      <point x="145" y="283" type="line"/>
      <point x="147" y="270" type="line"/>
      <point x="149" y="260" type="line"/>
      <point x="151" y="250" type="line"/>
      <point x="152" y="240" type="line"/>
      <point x="153" y="230" type="line"/>
      <point x="155" y="221" type="line"/>
      <point x="156" y="212" type="line"/>
      <point x="157" y="207" type="line"/>
      <point x="159" y="195" type="line"/>
      <point x="160" y="191" type="line"/>
      <point x="161" y="180" type="line"/>
      <point x="162" y="178" type="line"/>
      <point x="163" y="168" type="line"/>
      <point x="164" y="165" type="line"/>
      <point x="165" y="156" type="line"/>
      <point x="166" y="153" type="line"/>
      <point x="167" y="144" type="line"/>
      <point x="168" y="141" type="line"/>
      <point x="168" y="137" type="line"/>
      <point x="169" y="133" type="line"/>
      <point x="170" y="129" type="line"/>
      <point x="170" y="125" type="line"/>
      <point x="171" y="121" type="line"/>
      <point x="171" y="118" type="line"/>
      <point x="171" y="114" type="line"/>
      <point x="171" y="111" type="line"/>
      <point x="171" y="108" type="line"/>
      <point x="171" y="106" type="line"/>
      <point x="172" y="103" type="line"/>
      <point x="172" y="101" type="line"/>
      <point x="172" y="100" type="line"/>
      <point x="173" y="98" type="line"/>
      <point x="173" y="97" type="line"/>
      <point x="173" y="96" type="line"/>
      <point x="173" y="95" type="line"/>
      <point x="173" y="94" type="line"/>
      <point x="173" y="93" type="line"/>
      <point x="173" y="93" type="line"/>
      <point x="173" y="92" type="line"/>
      <point x="173" y="91" type="line"/>
      <point x="173" y="90" type="line"/>
      <point x="173" y="89" type="line"/>
      <point x="173" y="88" type="line"/>
      <point x="173" y="86" type="line"/>
      <point x="173" y="85" type="line"/>
      <point x="173" y="84" type="line"/>
      <point x="174" y="83" type="line"/>
      <point x="174" y="83" type="line"/>
      <point x="174" y="82" type="line"/>
      <point x="174" y="82" type="line"/>
      <point x="174" y="85" type="line"/>
      <point x="174" y="89" type="line"/>
      <point x="174" y="100" type="line"/>
      <point x="174" y="103" type="line"/>
      <point x="174" y="112" type="line"/>
      <point x="174" y="116" type="line"/>
      <point x="175" y="126" type="line"/>
      <point x="175" y="130" type="line"/>
      <point x="174" y="141" type="line"/>
      <point x="173" y="145" type="line"/>
      <point x="172" y="157" type="line"/>
      <point x="172" y="159" type="line"/>
      <point x="171" y="169" type="line"/>
      <point x="171" y="172" type="line"/>
      <point x="170" y="182" type="line"/>
      <point x="169" y="185" type="line"/>
      <point x="168" y="194" type="line"/>
      <point x="168" y="196" type="line"/>
      <point x="167" y="201" type="line"/>
      <point x="166" y="210" type="line"/>
      <point x="166" y="212" type="line"/>
      <point x="166" y="216" type="line"/>
      <point x="165" y="220" type="line"/>
      <point x="165" y="228" type="line"/>
      <point x="164" y="231" type="line"/>
      <point x="164" y="234" type="line"/>
      <point x="164" y="238" type="line"/>
      <point x="164" y="241" type="line"/>
      <point x="164" y="245" type="line"/>
      <point x="164" y="248" type="line"/>
      <point x="164" y="252" type="line"/>
      <point x="164" y="255" type="line"/>
      <point x="164" y="259" type="line"/>
      <point x="164" y="262" type="line"/>
      <point x="164" y="265" type="line"/>
      <point x="164" y="268" type="line"/>
      <point x="164" y="271" type="line"/>
      <point x="164" y="275" type="line"/>
      <point x="165" y="278" type="line"/>
      <point x="165" y="281" type="line"/>
      <point x="166" y="283" type="line"/>
      <point x="167" y="286" type="line"/>
      <point x="169" y="289" type="line"/>
      <point x="170" y="292" type="line"/>
      <point x="173" y="294" type="line"/>
      <point x="176" y="297" type="line"/>
      <point x="179" y="300" type="line"/>
      <point x="182" y="302" type="line"/>
      <point x="185" y="304" type="line"/>
      <point x="189" y="306" type="line"/>
      <point x="192" y="308" type="line"/>
      <point x="196" y="309" type="line"/>
      <point x="200" y="310" type="line"/>
      <point x="203" y="311" type="line"/>
      <point x="207" y="312" type="line"/>
      <point x="211" y="313" type="line"/>
      <point x="215" y="313" type="line"/>
      <point x="219" y="313" type="line"/>
      <point x="223" y="313" type="line"/>
      <point x="227" y="313" type="line"/>
      <point x="231" y="313" type="line"/>
      <point x="235" y="313" type="line"/>
      <point x="239" y="314" type="line"/>
      <point x="242" y="313" type="line"/>
      <point x="246" y="312" type="line"/>
      <point x="249" y="311" type="line"/>
      <point x="252" y="310" type="line"/>
      <point x="255" y="308" type="line"/>
      <point x="257" y="306" type="line"/>
      <point x="259" y="303" type="line"/>
      <point x="261" y="301" type="line"/>
      <point x="262" y="298" type="line"/>
      <point x="263" y="295" type="line"/>
      <point x="264" y="293" type="line"/>
      <point x="264" y="289" type="line"/>
      <point x="264" y="285" type="line"/>
      <point x="264" y="282" type="line"/>
      <point x="264" y="278" type="line"/>
      <point x="264" y="273" type="line"/>
      <point x="264" y="264" type="line"/>
      <point x="264" y="262" type="line"/>
      <point x="265" y="258" type="line"/>
      <point x="264" y="254" type="line"/>
      <point x="263" y="245" type="line"/>
      <point x="263" y="243" type="line"/>
      <point x="262" y="239" type="line"/>
      <point x="260" y="235" type="line"/>
      <point x="258" y="231" type="line"/>
      <point x="256" y="227" type="line"/>
      <point x="255" y="223" type="line"/>
      <point x="252" y="219" type="line"/>
      <point x="250" y="216" type="line"/>
      <point x="248" y="212" type="line"/>
      <point x="246" y="209" type="line"/>
      <point x="243" y="206" type="line"/>
      <point x="242" y="204" type="line"/>
      <point x="239" y="203" type="line"/>
      <point x="237" y="201" type="line"/>
      <point x="235" y="199" type="line"/>
      <point x="231" y="197" type="line"/>
      <point x="230" y="196" type="line"/>
      <point x="227" y="195" type="line"/>
      <point x="226" y="194" type="line"/>
      <point x="223" y="193" type="line"/>
      <point x="221" y="192" type="line"/>
      <point x="218" y="191" type="line"/>
      <point x="217" y="190" type="line"/>
      <point x="214" y="189" type="line"/>
      <point x="213" y="189" type="line"/>
      <point x="210" y="189" type="line"/>
      <point x="209" y="189" type="line"/>
      <point x="207" y="189" type="line"/>
      <point x="206" y="189" type="line"/>
      <point x="204" y="189" type="line"/>
      <point x="203" y="189" type="line"/>
      <point x="201" y="189" type="line"/>
      <point x="200" y="189" type="line"/>
      <point x="199" y="189" type="line"/>
      <point x="198" y="189" type="line"/>
      <point x="197" y="189" type="line"/>
      <point x="196" y="189" type="line"/>
      <point x="195" y="189" type="line"/>
      <point x="198" y="189" type="line"/>
      <point x="203" y="189" type="line"/>
      <point x="208" y="189" type="line"/>
      <point x="214" y="189" type="line"/>
      <point x="226" y="189" type="line"/>
      <point x="228" y="189" type="line"/>
      <point x="232" y="189" type="line"/>
      <point x="237" y="189" type="line"/>
      <point x="243" y="189" type="line"/>
      <point x="248" y="189" type="line"/>
      <point x="254" y="188" type="line"/>
      <point x="258" y="187" type="line"/>
      <point x="263" y="186" type="line"/>
      <point x="267" y="184" type="line"/>
      <point x="272" y="182" type="line"/>
      <point x="276" y="180" type="line"/>
      <point x="280" y="178" type="line"/>
      <point x="283" y="175" type="line"/>
      <point x="287" y="172" type="line"/>
      <point x="289" y="170" type="line"/>
      <point x="292" y="166" type="line"/>
      <point x="294" y="163" type="line"/>
      <point x="296" y="160" type="line"/>
      <point x="297" y="157" type="line"/>
      <point x="298" y="153" type="line"/>
      <point x="300" y="149" type="line"/>
      <point x="301" y="146" type="line"/>
      <point x="301" y="142" type="line"/>
      <point x="301" y="138" type="line"/>
      <point x="301" y="134" type="line"/>
      <point x="301" y="131" type="line"/>
      <point x="301" y="127" type="line"/>
      <point x="301" y="124" type="line"/>
      <point x="301" y="120" type="line"/>
      <point x="301" y="117" type="line"/>
      <point x="301" y="114" type="line"/>
      <point x="300" y="110" type="line"/>
      <point x="299" y="107" type="line"/>
      <point x="297" y="104" type="line"/>
      <point x="295" y="101" type="line"/>
      <point x="293" y="98" type="line"/>
      <point x="290" y="95" type="line"/>
      <point x="288" y="93" type="line"/>
      <point x="285" y="90" type="line"/>
      <point x="282" y="87" type="line"/>
      <point x="279" y="84" type="line"/>
      <point x="275" y="82" type="line"/>
      <point x="272" y="79" type="line"/>
      <point x="269" y="77" type="line"/>
      <point x="265" y="76" type="line"/>
      <point x="261" y="73" type="line"/>
      <point x="258" y="72" type="line"/>
      <point x="254" y="70" type="line"/>
      <point x="250" y="69" type="line"/>
      <point x="246" y="68" type="line"/>
      <point x="241" y="67" type="line"/>
      <point x="237" y="66" type="line"/>
      <point x="233" y="66" type="line"/>
      <point x="229" y="66" type="line"/>
      <point x="225" y="66" type="line"/>
      <point x="220" y="66" type="line"/>
      <point x="216" y="66" type="line"/>
      <point x="212" y="66" type="line"/>
      <point x="207" y="66" type="line"/>
      <point x="203" y="66" type="line"/>
      <point x="199" y="67" type="line"/>
      <point x="196" y="68" type="line"/>
      <point x="192" y="69" type="line"/>
      <point x="189" y="70" type="line"/>
      <point x="177" y="78" type="line"/>
      <point x="176" y="79" type="line"/>
      <point x="174" y="81" type="line"/>
      <point x="172" y="82" type="line"/>
      <point x="170" y="83" type="line"/>
      <point x="169" y="84" type="line"/>
      <point x="168" y="85" type="line"/>
      <point x="167" y="86" type="line"/>
      <point x="166" y="87" type="line"/>
      <point x="166" y="87" type="line"/>
      <point x="166" y="87" type="line"/>
    </contour>
  </outline>
</glyph>
<glyph name="C" format="1">
  <advance width="268"/>
  <unicode hex="0043"/>
  <outline>
    <contour>
      <point x="250" y="106" type="move"/>
      <point x="249" y="103" type="line"/>
      <point x="248" y="100" type="line"/>
      <point x="246" y="97" type="line"/>
      <point x="244" y="94" type="line"/>
      <point x="241" y="90" type="line"/>
      <point x="238" y="87" type="line"/>
      <point x="236" y="84" type="line"/>
      <point x="233" y="81" type="line"/>
      <point x="230" y="78" type="line"/>
      <point x="227" y="77" type="line"/>
      <point x="224" y="74" type="line"/>
      <point x="221" y="73" type="line"/>
      <point x="218" y="72" type="line"/>
      <point x="215" y="70" type="line"/>
      <point x="212" y="69" type="line"/>
      <point x="209" y="69" type="line"/>
      <point x="206" y="69" type="line"/>
      <point x="202" y="69" type="line"/>
      <point x="199" y="69" type="line"/>
      <point x="196" y="69" type="line"/>
      <point x="193" y="69" type="line"/>
      <point x="192" y="69" type="line"/>
      <point x="188" y="69" type="line"/>
      <point x="184" y="69" type="line"/>
      <point x="181" y="69" type="line"/>
      <point x="177" y="71" type="line"/>
      <point x="173" y="73" type="line"/>
      <point x="170" y="75" type="line"/>
      <point x="166" y="78" type="line"/>
      <point x="162" y="81" type="line"/>
      <point x="158" y="84" type="line"/>
      <point x="155" y="87" type="line"/>
      <point x="151" y="91" type="line"/>
      <point x="146" y="101" type="line"/>
      <point x="143" y="104" type="line"/>
      <point x="141" y="107" type="line"/>
      <point x="138" y="111" type="line"/>
      <point x="134" y="121" type="line"/>
      <point x="132" y="124" type="line"/>
      <point x="128" y="134" type="line"/>
      <point x="126" y="137" type="line"/>
      <point x="123" y="146" type="line"/>
      <point x="120" y="150" type="line"/>
      <point x="118" y="160" type="line"/>
      <point x="117" y="162" type="line"/>
      <point x="115" y="171" type="line"/>
      <point x="114" y="174" type="line"/>
      <point x="113" y="183" type="line"/>
      <point x="112" y="186" type="line"/>
      <point x="111" y="190" type="line"/>
      <point x="111" y="199" type="line"/>
      <point x="111" y="201" type="line"/>
      <point x="111" y="205" type="line"/>
      <point x="111" y="209" type="line"/>
      <point x="111" y="212" type="line"/>
      <point x="111" y="216" type="line"/>
      <point x="111" y="220" type="line"/>
      <point x="111" y="223" type="line"/>
      <point x="112" y="226" type="line"/>
      <point x="113" y="229" type="line"/>
      <point x="115" y="233" type="line"/>
      <point x="117" y="236" type="line"/>
      <point x="119" y="239" type="line"/>
      <point x="122" y="242" type="line"/>
      <point x="126" y="245" type="line"/>
      <point x="129" y="248" type="line"/>
      <point x="133" y="251" type="line"/>
      <point x="136" y="254" type="line"/>
      <point x="140" y="256" type="line"/>
      <point x="144" y="259" type="line"/>
      <point x="147" y="260" type="line"/>
      <point x="152" y="263" type="line"/>
      <point x="155" y="264" type="line"/>
      <point x="159" y="266" type="line"/>
      <point x="162" y="267" type="line"/>
      <point x="166" y="268" type="line"/>
      <point x="169" y="269" type="line"/>
      <point x="172" y="269" type="line"/>
      <point x="175" y="269" type="line"/>
      <point x="178" y="269" type="line"/>
      <point x="182" y="269" type="line"/>
      <point x="185" y="269" type="line"/>
      <point x="188" y="269" type="line"/>
      <point x="192" y="269" type="line"/>
      <point x="195" y="269" type="line"/>
      <point x="198" y="269" type="line"/>
      <point x="200" y="269" type="line"/>
      <point x="204" y="267" type="line"/>
      <point x="207" y="266" type="line"/>
      <point x="209" y="265" type="line"/>
      <point x="212" y="263" type="line"/>
      <point x="215" y="261" type="line"/>
      <point x="217" y="259" type="line"/>
      <point x="220" y="257" type="line"/>
      <point x="222" y="255" type="line"/>
      <point x="225" y="252" type="line"/>
      <point x="227" y="250" type="line"/>
      <point x="230" y="248" type="line"/>
      <point x="232" y="246" type="line"/>
      <point x="233" y="244" type="line"/>
      <point x="235" y="242" type="line"/>
      <point x="236" y="239" type="line"/>
      <point x="237" y="238" type="line"/>
      <point x="239" y="236" type="line"/>
      <point x="240" y="233" type="line"/>
      <point x="241" y="232" type="line"/>
      <point x="243" y="230" type="line"/>
      <point x="244" y="228" type="line"/>
      <point x="245" y="227" type="line"/>
      <point x="246" y="224" type="line"/>
      <point x="246" y="223" type="line"/>
      <point x="246" y="223" type="line"/>
      <point x="248" y="220" type="line"/>
      <point x="248" y="220" type="line"/>
      <point x="248" y="219" type="line"/>
      <point x="248" y="218" type="line"/>
      <point x="248" y="217" type="line"/>
      <point x="248" y="217" type="line"/>
    </contour>
  </outline>
</glyph>
<glyph name="D" format="1">
  <advance width="268"/>
  <unicode hex="0044"/>
  <outline>
    <contour>
      <point x="130" y="88" type="move"/>
      <point x="130" y="98" type="line"/>
      <point x="130" y="102" type="line"/>
      <point x="130" y="116" type="line"/>
      <point x="130" y="126" type="line"/>
      <point x="130" y="137" type="line"/>
      <point x="126" y="153" type="line"/>
      <point x="126" y="161" type="line"/>
      <point x="127" y="174" type="line"/>
      <point x="127" y="187" type="line"/>
      <point x="127" y="200" type="line"/>
      <point x="127" y="212" type="line"/>
      <point x="127" y="224" type="line"/>
      <point x="127" y="235" type="line"/>
      <point x="127" y="246" type="line"/>
      <point x="127" y="256" type="line"/>
      <point x="127" y="259" type="line"/>
      <point x="127" y="271" type="line"/>
      <point x="127" y="275" type="line"/>
      <point x="127" y="285" type="line"/>
      <point x="127" y="288" type="line"/>
      <point x="127" y="292" type="line"/>
      <point x="127" y="296" type="line"/>
      <point x="127" y="299" type="line"/>
      <point x="127" y="302" type="line"/>
      <point x="127" y="303" type="line"/>
      <point x="127" y="304" type="line"/>
      <point x="125" y="302" type="line"/>
      <point x="123" y="293" type="line"/>
      <point x="122" y="290" type="line"/>
      <point x="121" y="280" type="line"/>
      <point x="120" y="276" type="line"/>
      <point x="119" y="263" type="line"/>
      <point x="118" y="253" type="line"/>
      <point x="117" y="243" type="line"/>
      <point x="116" y="232" type="line"/>
      <point x="115" y="220" type="line"/>
      <point x="115" y="208" type="line"/>
      <point x="115" y="196" type="line"/>
      <point x="115" y="185" type="line"/>
      <point x="115" y="174" type="line"/>
      <point x="115" y="164" type="line"/>
      <point x="115" y="154" type="line"/>
      <point x="115" y="145" type="line"/>
      <point x="115" y="140" type="line"/>
      <point x="115" y="131" type="line"/>
      <point x="115" y="127" type="line"/>
      <point x="115" y="117" type="line"/>
      <point x="115" y="113" type="line"/>
      <point x="115" y="104" type="line"/>
      <point x="115" y="101" type="line"/>
      <point x="116" y="97" type="line"/>
      <point x="118" y="88" type="line"/>
      <point x="119" y="87" type="line"/>
      <point x="121" y="83" type="line"/>
      <point x="124" y="80" type="line"/>
      <point x="127" y="76" type="line"/>
      <point x="130" y="73" type="line"/>
      <point x="134" y="69" type="line"/>
      <point x="137" y="67" type="line"/>
      <point x="141" y="65" type="line"/>
      <point x="146" y="62" type="line"/>
      <point x="152" y="61" type="line"/>
      <point x="164" y="59" type="line"/>
      <point x="168" y="58" type="line"/>
      <point x="181" y="58" type="line"/>
      <point x="185" y="58" type="line"/>
      <point x="200" y="58" type="line"/>
      <point x="205" y="58" type="line"/>
      <point x="221" y="61" type="line"/>
      <point x="226" y="63" type="line"/>
      <point x="241" y="72" type="line"/>
      <point x="246" y="74" type="line"/>
      <point x="259" y="84" type="line"/>
      <point x="263" y="87" type="line"/>
      <point x="269" y="98" type="line"/>
      <point x="274" y="103" type="line"/>
      <point x="280" y="115" type="line"/>
      <point x="283" y="120" type="line"/>
      <point x="287" y="133" type="line"/>
      <point x="289" y="137" type="line"/>
      <point x="290" y="150" type="line"/>
      <point x="291" y="154" type="line"/>
      <point x="291" y="167" type="line"/>
      <point x="291" y="171" type="line"/>
      <point x="291" y="184" type="line"/>
      <point x="290" y="188" type="line"/>
      <point x="287" y="201" type="line"/>
      <point x="284" y="205" type="line"/>
      <point x="280" y="218" type="line"/>
      <point x="276" y="222" type="line"/>
      <point x="270" y="234" type="line"/>
      <point x="266" y="238" type="line"/>
      <point x="260" y="249" type="line"/>
      <point x="256" y="253" type="line"/>
      <point x="249" y="262" type="line"/>
      <point x="239" y="266" type="line"/>
      <point x="235" y="269" type="line"/>
      <point x="229" y="273" type="line"/>
      <point x="218" y="278" type="line"/>
      <point x="213" y="281" type="line"/>
      <point x="207" y="285" type="line"/>
      <point x="194" y="288" type="line"/>
      <point x="190" y="289" type="line"/>
      <point x="186" y="290" type="line"/>
      <point x="172" y="292" type="line"/>
      <point x="171" y="292" type="line"/>
      <point x="166" y="292" type="line"/>
      <point x="161" y="292" type="line"/>
      <point x="155" y="292" type="line"/>
      <point x="149" y="292" type="line"/>
      <point x="143" y="292" type="line"/>
      <point x="138" y="292" type="line"/>
      <point x="133" y="291" type="line"/>
      <point x="128" y="290" type="line"/>
      <point x="124" y="290" type="line"/>
      <point x="120" y="288" type="line"/>
      <point x="117" y="287" type="line"/>
      <point x="115" y="286" type="line"/>
      <point x="114" y="286" type="line"/>
      <point x="111" y="284" type="line"/>
      <point x="110" y="283" type="line"/>
      <point x="109" y="282" type="line"/>
      <point x="108" y="281" type="line"/>
      <point x="107" y="280" type="line"/>
      <point x="107" y="280" type="line"/>
    </contour>
  </outline>
</glyph>
<glyph name="E" format="1">
  <advance width="268"/>
  <unicode hex="0045"/>
  <outline>
    <contour>
      <point x="271" y="60" type="move"/>
      <point x="255" y="63" type="line"/>
      <point x="250" y="64" type="line"/>
      <point x="233" y="67" type="line"/>
      <point x="219" y="69" type="line"/>
      <point x="205" y="71" type="line"/>
      <point x="189" y="74" type="line"/>
      <point x="173" y="77" type="line"/>
      <point x="156" y="80" type="line"/>
      <point x="140" y="83" type="line"/>
      <point x="124" y="87" type="line"/>
      <point x="118" y="89" type="line"/>
      <point x="99" y="92" type="line"/>
      <point x="86" y="95" type="line"/>
      <point x="82" y="97" type="line"/>
      <point x="69" y="100" type="line"/>
      <point x="64" y="102" type="line"/>
      <point x="59" y="103" type="line"/>
      <point x="56" y="104" type="line"/>
      <point x="51" y="105" type="line"/>
      <point x="47" y="106" type="line"/>
      <point x="45" y="106" type="line"/>
      <point x="44" y="107" type="line"/>
      <point x="43" y="107" type="line"/>
      <point x="43" y="107" type="line"/>
      <point x="43" y="108" type="line"/>
      <point x="43" y="108" type="line"/>
      <point x="42" y="109" type="line"/>
      <point x="42" y="110" type="line"/>
      <point x="42" y="110" type="line"/>
      <point x="42" y="111" type="line"/>
      <point x="43" y="111" type="line"/>
      <point x="44" y="112" type="line"/>
      <point x="45" y="113" type="line"/>
      <point x="48" y="115" type="line"/>
      <point x="51" y="117" type="line"/>
      <point x="55" y="120" type="line"/>
      <point x="59" y="123" type="line"/>
      <point x="63" y="127" type="line"/>
      <point x="69" y="136" type="line"/>
      <point x="72" y="141" type="line"/>
      <point x="78" y="152" type="line"/>
      <point x="82" y="161" type="line"/>
      <point x="87" y="171" type="line"/>
      <point x="91" y="181" type="line"/>
      <point x="96" y="192" type="line"/>
      <point x="99" y="203" type="line"/>
      <point x="103" y="215" type="line"/>
      <point x="105" y="226" type="line"/>
      <point x="108" y="237" type="line"/>
      <point x="109" y="248" type="line"/>
      <point x="111" y="259" type="line"/>
      <point x="111" y="269" type="line"/>
      <point x="111" y="278" type="line"/>
      <point x="111" y="287" type="line"/>
      <point x="111" y="289" type="line"/>
      <point x="111" y="299" type="line"/>
      <point x="111" y="302" type="line"/>
      <point x="111" y="311" type="line"/>
      <point x="111" y="314" type="line"/>
      <point x="111" y="317" type="line"/>
      <point x="110" y="320" type="line"/>
      <point x="110" y="322" type="line"/>
      <point x="110" y="323" type="line"/>
      <point x="110" y="324" type="line"/>
      <point x="110" y="325" type="line"/>
      <point x="113" y="325" type="line"/>
      <point x="126" y="323" type="line"/>
      <point x="132" y="320" type="line"/>
      <point x="145" y="317" type="line"/>
      <point x="151" y="315" type="line"/>
      <point x="168" y="311" type="line"/>
      <point x="181" y="309" type="line"/>
      <point x="198" y="306" type="line"/>
      <point x="203" y="305" type="line"/>
      <point x="220" y="302" type="line"/>
      <point x="223" y="301" type="line"/>
      <point x="236" y="300" type="line"/>
      <point x="240" y="299" type="line"/>
      <point x="246" y="298" type="line"/>
      <point x="251" y="297" type="line"/>
      <point x="251" y="297" type="line"/>
    </contour>
    <contour>
      <point x="201" y="217" type="move"/>
      <point x="197" y="217" type="line"/>
      <point x="193" y="218" type="line"/>
      <point x="187" y="219" type="line"/>
      <point x="181" y="220" type="line"/>
      <point x="169" y="221" type="line"/>
      <point x="166" y="221" type="line"/>
      <point x="162" y="221" type="line"/>
      <point x="157" y="221" type="line"/>
      <point x="151" y="222" type="line"/>
      <point x="146" y="223" type="line"/>
      <point x="140" y="223" type="line"/>
      <point x="136" y="224" type="line"/>
      <point x="132" y="224" type="line"/>
      <point x="128" y="225" type="line"/>
      <point x="127" y="225" type="line"/>
      <point x="127" y="225" type="line"/>
    </contour>
  </outline>
</glyph>
<glyph name="F" format="1">
  <advance width="268"/>
  <unicode hex="0046"/>
  <outline>
    <contour>
      <point x="312" y="256" type="move"/>
      <point x="308" y="258" type="line"/>
      <point x="304" y="258" type="line"/>
      <point x="298" y="258" type="line"/>
      <point x="285" y="257" type="line"/>
      <point x="281" y="257" type="line"/>
      <point x="267" y="256" type="line"/>
      <point x="262" y="255" type="line"/>
      <point x="241" y="253" type="line"/>
      <point x="228" y="252" type="line"/>
      <point x="215" y="251" type="line"/>
      <point x="201" y="250" type="line"/>
      <point x="197" y="250" type="line"/>
      <point x="179" y="250" type="line"/>
      <point x="166" y="249" type="line"/>
      <point x="154" y="249" type="line"/>
      <point x="151" y="249" type="line"/>
      <point x="138" y="249" type="line"/>
      <point x="134" y="249" type="line"/>
      <point x="129" y="249" type="line"/>
      <point x="123" y="249" type="line"/>
      <point x="119" y="249" type="line"/>
      <point x="115" y="249" type="line"/>
      <point x="114" y="249" type="line"/>
      <point x="113" y="249" type="line"/>
      <point x="112" y="250" type="line"/>
      <point x="112" y="250" type="line"/>
      <point x="114" y="249" type="line"/>
      <point x="116" y="247" type="line"/>
      <point x="118" y="244" type="line"/>
      <point x="121" y="240" type="line"/>
      <point x="124" y="231" type="line"/>
      <point x="125" y="227" type="line"/>
      <point x="129" y="216" type="line"/>
      <point x="132" y="207" type="line"/>
      <point x="134" y="197" type="line"/>
      <point x="137" y="186" type="line"/>
      <point x="140" y="175" type="line"/>
      <point x="144" y="163" type="line"/>
      <point x="147" y="151" type="line"/>
      <point x="150" y="139" type="line"/>
      <point x="151" y="127" type="line"/>
      <point x="154" y="117" type="line"/>
      <point x="156" y="107" type="line"/>
      <point x="157" y="104" type="line"/>
      <point x="160" y="94" type="line"/>
      <point x="161" y="91" type="line"/>
      <point x="162" y="81" type="line"/>
      <point x="163" y="81" type="line"/>
      <point x="164" y="77" type="line"/>
      <point x="165" y="74" type="line"/>
      <point x="165" y="72" type="line"/>
      <point x="165" y="71" type="line"/>
      <point x="165" y="71" type="line"/>
      <point x="165" y="70" type="line"/>
      <point x="165" y="70" type="line"/>
    </contour>
    <contour>
      <point x="146" y="156" type="move"/>
      <point x="155" y="155" type="line"/>
      <point x="159" y="155" type="line"/>
      <point x="165" y="154" type="line"/>
      <point x="179" y="153" type="line"/>
      <point x="184" y="153" type="line"/>
      <point x="198" y="152" type="line"/>
      <point x="203" y="152" type="line"/>
      <point x="218" y="152" type="line"/>
      <point x="223" y="152" type="line"/>
      <point x="228" y="152" type="line"/>
      <point x="241" y="152" type="line"/>
      <point x="245" y="152" type="line"/>
      <point x="249" y="152" type="line"/>
      <point x="254" y="152" type="line"/>
      <point x="254" y="152" type="line"/>
    </contour>
  </outline>
</glyph>
<glyph name="G" format="1">
  <advance width="268"/>
  <unicode hex="0047"/>
  <outline>
    <contour>
      <point x="290" y="214" type="move"/>
      <point x="286" y="224" type="line"/>
      <point x="284" y="227" type="line"/>
      <point x="279" y="238" type="line"/>
      <point x="277" y="242" type="line"/>
      <point x="272" y="254" type="line"/>
      <point x="269" y="258" type="line"/>
      <point x="265" y="262" type="line"/>
      <point x="260" y="271" type="line"/>
      <point x="256" y="274" type="line"/>
      <point x="252" y="278" type="line"/>
      <point x="247" y="281" type="line"/>
      <point x="235" y="286" type="line"/>
      <point x="233" y="288" type="line"/>
      <point x="230" y="289" type="line"/>
      <point x="225" y="290" type="line"/>
      <point x="220" y="290" type="line"/>
      <point x="206" y="290" type="line"/>
      <point x="203" y="290" type="line"/>
      <point x="198" y="290" type="line"/>
      <point x="192" y="288" type="line"/>
      <point x="186" y="285" type="line"/>
      <point x="173" y="276" type="line"/>
      <point x="170" y="274" type="line"/>
      <point x="164" y="265" type="line"/>
      <point x="160" y="261" type="line"/>
      <point x="154" y="250" type="line"/>
      <point x="150" y="246" type="line"/>
      <point x="144" y="235" type="line"/>
      <point x="141" y="233" type="line"/>
      <point x="136" y="222" type="line"/>
      <point x="133" y="218" type="line"/>
      <point x="130" y="208" type="line"/>
      <point x="128" y="204" type="line"/>
      <point x="125" y="193" type="line"/>
      <point x="124" y="189" type="line"/>
      <point x="123" y="177" type="line"/>
      <point x="123" y="172" type="line"/>
      <point x="123" y="160" type="line"/>
      <point x="123" y="155" type="line"/>
      <point x="123" y="143" type="line"/>
      <point x="123" y="139" type="line"/>
      <point x="123" y="128" type="line"/>
      <point x="125" y="124" type="line"/>
      <point x="127" y="114" type="line"/>
      <point x="128" y="113" type="line"/>
      <point x="132" y="104" type="line"/>
      <point x="135" y="100" type="line"/>
      <point x="138" y="96" type="line"/>
      <point x="142" y="92" type="line"/>
      <point x="146" y="83" type="line"/>
      <point x="149" y="82" type="line"/>
      <point x="152" y="78" type="line"/>
      <point x="157" y="75" type="line"/>
      <point x="161" y="72" type="line"/>
      <point x="165" y="70" type="line"/>
      <point x="170" y="68" type="line"/>
      <point x="175" y="66" type="line"/>
      <point x="180" y="65" type="line"/>
      <point x="185" y="64" type="line"/>
      <point x="190" y="63" type="line"/>
      <point x="195" y="62" type="line"/>
      <point x="201" y="62" type="line"/>
      <point x="206" y="62" type="line"/>
      <point x="211" y="62" type="line"/>
      <point x="216" y="62" type="line"/>
      <point x="221" y="62" type="line"/>
      <point x="226" y="64" type="line"/>
      <point x="230" y="65" type="line"/>
      <point x="235" y="67" type="line"/>
      <point x="239" y="69" type="line"/>
      <point x="244" y="72" type="line"/>
      <point x="247" y="74" type="line"/>
      <point x="251" y="77" type="line"/>
      <point x="255" y="80" type="line"/>
      <point x="258" y="83" type="line"/>
      <point x="262" y="86" type="line"/>
      <point x="264" y="89" type="line"/>
      <point x="267" y="93" type="line"/>
      <point x="269" y="97" type="line"/>
      <point x="273" y="106" type="line"/>
      <point x="274" y="109" type="line"/>
      <point x="275" y="113" type="line"/>
      <point x="277" y="122" type="line"/>
      <point x="278" y="125" type="line"/>
      <point x="279" y="128" type="line"/>
      <point x="280" y="133" type="line"/>
      <point x="280" y="137" type="line"/>
      <point x="280" y="141" type="line"/>
      <point x="280" y="145" type="line"/>
      <point x="280" y="148" type="line"/>
      <point x="280" y="150" type="line"/>
      <point x="280" y="151" type="line"/>
      <point x="280" y="152" type="line"/>
      <point x="280" y="153" type="line"/>
      <point x="280" y="154" type="line"/>
      <point x="279" y="155" type="line"/>
      <point x="278" y="156" type="line"/>
      <point x="278" y="156" type="line"/>
      <point x="277" y="156" type="line"/>
      <point x="277" y="156" type="line"/>
      <point x="276" y="156" type="line"/>
      <point x="275" y="155" type="line"/>
      <point x="271" y="154" type="line"/>
      <point x="267" y="152" type="line"/>
      <point x="264" y="151" type="line"/>
      <point x="260" y="149" type="line"/>
      <point x="256" y="148" type="line"/>
      <point x="251" y="147" type="line"/>
      <point x="246" y="145" type="line"/>
      <point x="242" y="144" type="line"/>
      <point x="237" y="142" type="line"/>
      <point x="233" y="142" type="line"/>
      <point x="228" y="141" type="line"/>
      <point x="223" y="140" type="line"/>
      <point x="219" y="139" type="line"/>
      <point x="215" y="139" type="line"/>
      <point x="211" y="138" type="line"/>
      <point x="208" y="137" type="line"/>
      <point x="207" y="137" type="line"/>
      <point x="203" y="137" type="line"/>
      <point x="202" y="137" type="line"/>
      <point x="201" y="137" type="line"/>
      <point x="200" y="137" type="line"/>
      <point x="199" y="137" type="line"/>
      <point x="200" y="137" type="line"/>
      <point x="205" y="137" type="line"/>
      <point x="210" y="137" type="line"/>
      <point x="216" y="137" type="line"/>
      <point x="228" y="137" type="line"/>
      <point x="232" y="137" type="line"/>
      <point x="237" y="137" type="line"/>
      <point x="250" y="137" type="line"/>
      <point x="251" y="137" type="line"/>
      <point x="256" y="137" type="line"/>
      <point x="261" y="137" type="line"/>
      <point x="266" y="137" type="line"/>
      <point x="271" y="137" type="line"/>
      <point x="274" y="137" type="line"/>
      <point x="277" y="137" type="line"/>
      <point x="279" y="137" type="line"/>
      <point x="280" y="137" type="line"/>
      <point x="281" y="137" type="line"/>
      <point x="281" y="137" type="line"/>
      <point x="283" y="137" type="line"/>
      <point x="285" y="135" type="line"/>
      <point x="286" y="134" type="line"/>
      <point x="288" y="132" type="line"/>
      <point x="289" y="130" type="line"/>
      <point x="290" y="128" type="line"/>
      <point x="290" y="125" type="line"/>
      <point x="290" y="122" type="line"/>
      <point x="291" y="119" type="line"/>
      <point x="291" y="116" type="line"/>
      <point x="291" y="112" type="line"/>
      <point x="291" y="108" type="line"/>
      <point x="291" y="105" type="line"/>
      <point x="291" y="101" type="line"/>
      <point x="291" y="97" type="line"/>
      <point x="291" y="94" type="line"/>
      <point x="291" y="90" type="line"/>
      <point x="291" y="87" type="line"/>
      <point x="291" y="83" type="line"/>
      <point x="291" y="80" type="line"/>
      <point x="291" y="78" type="line"/>
      <point x="292" y="75" type="line"/>
      <point x="292" y="73" type="line"/>
      <point x="292" y="72" type="line"/>
      <point x="292" y="71" type="line"/>
      <point x="292" y="70" type="line"/>
      <point x="293" y="69" type="line"/>
      <point x="293" y="68" type="line"/>
      <point x="293" y="67" type="line"/>
      <point x="293" y="67" type="line"/>
      <point x="293" y="67" type="line"/>
    </contour>
  </outline>
</glyph>
<glyph name="H" format="1">
  <advance width="268"/>
  <unicode hex="0048"/>
  <outline>
    <contour>
      <point x="267" y="62" type="move"/>
      <point x="267" y="66" type="line"/>
      <point x="266" y="81" type="line"/>
      <point x="265" y="93" type="line"/>
      <point x="264" y="107" type="line"/>
      <point x="263" y="117" type="line"/>
      <point x="262" y="130" type="line"/>
      <point x="261" y="144" type="line"/>
      <point x="260" y="157" type="line"/>
      <point x="259" y="170" type="line"/>
      <point x="258" y="181" type="line"/>
      <point x="258" y="184" type="line"/>
      <point x="258" y="196" type="line"/>
      <point x="258" y="200" type="line"/>
      <point x="258" y="210" type="line"/>
      <point x="258" y="210" type="line"/>
    </contour>
    <contour>
      <point x="138" y="70" type="move"/>
      <point x="137" y="81" type="line"/>
      <point x="136" y="93" type="line"/>
      <point x="135" y="109" type="line"/>
      <point x="134" y="125" type="line"/>
      <point x="133" y="142" type="line"/>
      <point x="132" y="159" type="line"/>
      <point x="131" y="176" type="line"/>
      <point x="130" y="187" type="line"/>
      <point x="129" y="202" type="line"/>
      <point x="128" y="217" type="line"/>
      <point x="127" y="229" type="line"/>
      <point x="126" y="232" type="line"/>
      <point x="125" y="245" type="line"/>
      <point x="125" y="249" type="line"/>
      <point x="124" y="260" type="line"/>
      <point x="123" y="262" type="line"/>
      <point x="123" y="265" type="line"/>
      <point x="123" y="268" type="line"/>
      <point x="123" y="269" type="line"/>
      <point x="123" y="269" type="line"/>
    </contour>
    <contour>
      <point x="107" y="159" type="move"/>
      <point x="121" y="159" type="line"/>
      <point x="138" y="159" type="line"/>
      <point x="166" y="159" type="line"/>
      <point x="194" y="159" type="line"/>
      <point x="229" y="159" type="line"/>
      <point x="273" y="154" type="line"/>
      <point x="297" y="152" type="line"/>
      <point x="316" y="151" type="line"/>
      <point x="332" y="150" type="line"/>
      <point x="356" y="149" type="line"/>
      <point x="360" y="149" type="line"/>
      <point x="380" y="149" type="line"/>
      <point x="386" y="149" type="line"/>
      <point x="386" y="149" type="line"/>
    </contour>
  </outline>
</glyph>
<glyph name="I" format="1">
  <advance width="268"/>
  <unicode hex="0049"/>
  <outline>
    <contour>
      <point x="297" y="47" type="move"/>
      <point x="291" y="47" type="line"/>
      <point x="277" y="48" type="line"/>
      <point x="272" y="49" type="line"/>
      <point x="257" y="51" type="line"/>
      <point x="251" y="52" type="line"/>
      <point x="234" y="54" type="line"/>
      <point x="222" y="56" type="line"/>
      <point x="216" y="58" type="line"/>
      <point x="198" y="60" type="line"/>
      <point x="192" y="62" type="line"/>
      <point x="175" y="64" type="line"/>
      <point x="170" y="65" type="line"/>
      <point x="164" y="66" type="line"/>
      <point x="151" y="68" type="line"/>
      <point x="147" y="68" type="line"/>
      <point x="143" y="69" type="line"/>
      <point x="139" y="69" type="line"/>
      <point x="135" y="69" type="line"/>
      <point x="134" y="69" type="line"/>
      <point x="134" y="69" type="line"/>
    </contour>
    <contour>
      <point x="187" y="65" type="move"/>
      <point x="187" y="78" type="line"/>
      <point x="187" y="87" type="line"/>
      <point x="188" y="98" type="line"/>
      <point x="188" y="109" type="line"/>
      <point x="188" y="120" type="line"/>
      <point x="188" y="131" type="line"/>
      <point x="188" y="142" type="line"/>
      <point x="188" y="152" type="line"/>
      <point x="188" y="162" type="line"/>
      <point x="188" y="164" type="line"/>
      <point x="188" y="175" type="line"/>
      <point x="188" y="178" type="line"/>
      <point x="188" y="188" type="line"/>
      <point x="188" y="191" type="line"/>
      <point x="188" y="195" type="line"/>
      <point x="188" y="199" type="line"/>
      <point x="189" y="202" type="line"/>
      <point x="189" y="206" type="line"/>
      <point x="189" y="209" type="line"/>
      <point x="189" y="211" type="line"/>
      <point x="190" y="214" type="line"/>
      <point x="190" y="214" type="line"/>
      <point x="190" y="217" type="line"/>
      <point x="190" y="218" type="line"/>
      <point x="190" y="219" type="line"/>
      <point x="190" y="220" type="line"/>
      <point x="190" y="220" type="line"/>
      <point x="190" y="221" type="line"/>
      <point x="190" y="221" type="line"/>
      <point x="190" y="221" type="line"/>
    </contour>
    <contour>
      <point x="286" y="219" type="move"/>
      <point x="273" y="219" type="line"/>
      <point x="268" y="219" type="line"/>
      <point x="251" y="219" type="line"/>
      <point x="238" y="219" type="line"/>
      <point x="225" y="219" type="line"/>
      <point x="210" y="219" type="line"/>
      <point x="206" y="219" type="line"/>
      <point x="187" y="219" type="line"/>
      <point x="173" y="219" type="line"/>
      <point x="160" y="219" type="line"/>
      <point x="148" y="219" type="line"/>
      <point x="142" y="220" type="line"/>
      <point x="126" y="221" type="line"/>
      <point x="120" y="222" type="line"/>
      <point x="115" y="223" type="line"/>
      <point x="102" y="224" type="line"/>
      <point x="99" y="225" type="line"/>
      <point x="94" y="226" type="line"/>
      <point x="89" y="227" type="line"/>
      <point x="85" y="227" type="line"/>
      <point x="81" y="228" type="line"/>
      <point x="78" y="229" type="line"/>
      <point x="76" y="229" type="line"/>
      <point x="75" y="230" type="line"/>
      <point x="74" y="230" type="line"/>
      <point x="73" y="230" type="line"/>
      <point x="72" y="230" type="line"/>
      <point x="71" y="230" type="line"/>
      <point x="71" y="230" type="line"/>
    </contour>
  </outline>
</glyph>
<glyph name="J" format="1">
  <advance width="268"/>
  <unicode hex="004A"/>
  <outline>
    <contour>
      <point x="333" y="260" type="move"/>
      <point x="329" y="261" type="line"/>
      <point x="325" y="261" type="line"/>
      <point x="319" y="262" type="line"/>
      <point x="314" y="262" type="line"/>
      <point x="301" y="263" type="line"/>
      <point x="298" y="263" type="line"/>
      <point x="285" y="264" type="line"/>
      <point x="280" y="264" type="line"/>
      <point x="265" y="265" type="line"/>
      <point x="259" y="265" type="line"/>
      <point x="238" y="266" type="line"/>
      <point x="233" y="266" type="line"/>
      <point x="216" y="266" type="line"/>
      <point x="203" y="266" type="line"/>
      <point x="190" y="266" type="line"/>
      <point x="177" y="267" type="line"/>
      <point x="165" y="267" type="line"/>
      <point x="160" y="267" type="line"/>
      <point x="154" y="268" type="line"/>
      <point x="140" y="269" type="line"/>
      <point x="137" y="269" type="line"/>
      <point x="133" y="270" type="line"/>
      <point x="128" y="270" type="line"/>
      <point x="125" y="271" type="line"/>
      <point x="125" y="271" type="line"/>
    </contour>
    <contour>
      <point x="223" y="260" type="move"/>
      <point x="226" y="251" type="line"/>
      <point x="228" y="247" type="line"/>
      <point x="232" y="235" type="line"/>
      <point x="236" y="226" type="line"/>
      <point x="240" y="215" type="line"/>
      <point x="244" y="204" type="line"/>
      <point x="247" y="193" type="line"/>
      <point x="250" y="183" type="line"/>
      <point x="252" y="173" type="line"/>
      <point x="253" y="163" type="line"/>
      <point x="254" y="153" type="line"/>
      <point x="255" y="144" type="line"/>
      <point x="255" y="134" type="line"/>
      <point x="255" y="126" type="line"/>
      <point x="255" y="121" type="line"/>
      <point x="255" y="109" type="line"/>
      <point x="255" y="107" type="line"/>
      <point x="255" y="97" type="line"/>
      <point x="255" y="94" type="line"/>
      <point x="254" y="85" type="line"/>
      <point x="253" y="82" type="line"/>
      <point x="252" y="79" type="line"/>
      <point x="250" y="75" type="line"/>
      <point x="248" y="72" type="line"/>
      <point x="247" y="70" type="line"/>
      <point x="245" y="68" type="line"/>
      <point x="244" y="67" type="line"/>
      <point x="241" y="66" type="line"/>
      <point x="241" y="66" type="line"/>
      <point x="238" y="66" type="line"/>
      <point x="235" y="66" type="line"/>
      <point x="231" y="66" type="line"/>
      <point x="227" y="65" type="line"/>
      <point x="222" y="65" type="line"/>
      <point x="217" y="67" type="line"/>
      <point x="212" y="68" type="line"/>
      <point x="206" y="71" type="line"/>
      <point x="200" y="73" type="line"/>
      <point x="188" y="76" type="line"/>
      <point x="184" y="78" type="line"/>
      <point x="180" y="81" type="line"/>
      <point x="176" y="84" type="line"/>
      <point x="171" y="87" type="line"/>
      <point x="166" y="89" type="line"/>
      <point x="162" y="93" type="line"/>
      <point x="158" y="95" type="line"/>
      <point x="154" y="98" type="line"/>
      <point x="151" y="101" type="line"/>
      <point x="149" y="103" type="line"/>
      <point x="147" y="106" type="line"/>
      <point x="144" y="109" type="line"/>
      <point x="142" y="111" type="line"/>
      <point x="141" y="113" type="line"/>
      <point x="140" y="115" type="line"/>
      <point x="140" y="118" type="line"/>
      <point x="140" y="119" type="line"/>
      <point x="140" y="121" type="line"/>
      <point x="140" y="122" type="line"/>
      <point x="140" y="125" type="line"/>
      <point x="140" y="126" type="line"/>
      <point x="140" y="127" type="line"/>
      <point x="140" y="128" type="line"/>
      <point x="140" y="129" type="line"/>
      <point x="140" y="130" type="line"/>
      <point x="140" y="131" type="line"/>
      <point x="140" y="131" type="line"/>
      <point x="139" y="132" type="line"/>
      <point x="139" y="132" type="line"/>
    </contour>
  </outline>
</glyph>
<glyph name="K" format="1">
  <advance width="268"/>
  <unicode hex="004B"/>
  <outline>
    <contour>
      <point x="130" y="279" type="move"/>
      <point x="133" y="268" type="line"/>
      <point x="137" y="256" type="line"/>
      <point x="140" y="243" type="line"/>
      <point x="143" y="230" type="line"/>
      <point x="146" y="215" type="line"/>
      <point x="149" y="200" type="line"/>
      <point x="153" y="184" type="line"/>
      <point x="156" y="168" type="line"/>
      <point x="159" y="152" type="line"/>
      <point x="161" y="142" type="line"/>
      <point x="164" y="127" type="line"/>
      <point x="167" y="114" type="line"/>
      <point x="168" y="111" type="line"/>
      <point x="170" y="98" type="line"/>
      <point x="171" y="94" type="line"/>
      <point x="173" y="83" type="line"/>
      <point x="173" y="80" type="line"/>
      <point x="174" y="77" type="line"/>
      <point x="174" y="74" type="line"/>
      <point x="174" y="71" type="line"/>
      <point x="174" y="69" type="line"/>
      <point x="174" y="68" type="line"/>
      <point x="174" y="67" type="line"/>
      <point x="174" y="67" type="line"/>
    </contour>
    <contour>
      <point x="233" y="291" type="move"/>
      <point x="229" y="282" type="line"/>
      <point x="226" y="278" type="line"/>
      <point x="221" y="266" type="line"/>
      <point x="216" y="257" type="line"/>
      <point x="203" y="244" type="line"/>
      <point x="201" y="240" type="line"/>
      <point x="195" y="226" type="line"/>
      <point x="185" y="215" type="line"/>
      <point x="180" y="206" type="line"/>
      <point x="177" y="203" type="line"/>
      <point x="172" y="193" type="line"/>
      <point x="168" y="189" type="line"/>
      <point x="162" y="179" type="line"/>
      <point x="159" y="176" type="line"/>
      <point x="156" y="173" type="line"/>
      <point x="152" y="170" type="line"/>
      <point x="149" y="167" type="line"/>
      <point x="147" y="165" type="line"/>
      <point x="145" y="163" type="line"/>
      <point x="143" y="162" type="line"/>
      <point x="142" y="161" type="line"/>
      <point x="140" y="159" type="line"/>
      <point x="138" y="159" type="line"/>
      <point x="137" y="158" type="line"/>
      <point x="136" y="157" type="line"/>
      <point x="135" y="157" type="line"/>
      <point x="134" y="156" type="line"/>
      <point x="134" y="156" type="line"/>
    </contour>
    <contour>
      <point x="194" y="203" type="move"/>
      <point x="196" y="200" type="line"/>
      <point x="200" y="189" type="line"/>
      <point x="204" y="180" type="line"/>
      <point x="209" y="170" type="line"/>
      <point x="214" y="160" type="line"/>
      <point x="225" y="149" type="line"/>
      <point x="230" y="139" type="line"/>
      <point x="235" y="129" type="line"/>
      <point x="240" y="120" type="line"/>
      <point x="243" y="118" type="line"/>
      <point x="249" y="109" type="line"/>
      <point x="253" y="106" type="line"/>
      <point x="258" y="103" type="line"/>
      <point x="262" y="100" type="line"/>
      <point x="265" y="97" type="line"/>
      <point x="266" y="96" type="line"/>
      <point x="267" y="95" type="line"/>
      <point x="268" y="94" type="line"/>
      <point x="268" y="94" type="line"/>
    </contour>
  </outline>
</glyph>
<glyph name="L" format="1">
  <advance width="268"/>
  <unicode hex="004C"/>
  <outline>
    <contour>
      <point x="156" y="303" type="move"/>
      <point x="158" y="300" type="line"/>
      <point x="160" y="291" type="line"/>
      <point x="162" y="287" type="line"/>
      <point x="165" y="275" type="line"/>
      <point x="168" y="265" type="line"/>
      <point x="170" y="255" type="line"/>
      <point x="173" y="244" type="line"/>
      <point x="175" y="233" type="line"/>
      <point x="176" y="221" type="line"/>
      <point x="179" y="210" type="line"/>
      <point x="180" y="199" type="line"/>
      <point x="181" y="188" type="line"/>
      <point x="181" y="178" type="line"/>
      <point x="181" y="168" type="line"/>
      <point x="181" y="159" type="line"/>
      <point x="181" y="157" type="line"/>
      <point x="181" y="146" type="line"/>
      <point x="181" y="142" type="line"/>
      <point x="181" y="132" type="line"/>
      <point x="181" y="130" type="line"/>
      <point x="181" y="126" type="line"/>
      <point x="181" y="121" type="line"/>
      <point x="181" y="117" type="line"/>
      <point x="181" y="113" type="line"/>
      <point x="180" y="110" type="line"/>
      <point x="180" y="107" type="line"/>
      <point x="180" y="105" type="line"/>
      <point x="180" y="102" type="line"/>
      <point x="180" y="102" type="line"/>
      <point x="179" y="101" type="line"/>
      <point x="179" y="100" type="line"/>
      <point x="179" y="99" type="line"/>
      <point x="179" y="98" type="line"/>
      <point x="179" y="98" type="line"/>
      <point x="179" y="97" type="line"/>
      <point x="182" y="97" type="line"/>
      <point x="194" y="97" type="line"/>
      <point x="200" y="99" type="line"/>
      <point x="218" y="100" type="line"/>
      <point x="223" y="102" type="line"/>
      <point x="241" y="104" type="line"/>
      <point x="253" y="106" type="line"/>
      <point x="259" y="107" type="line"/>
      <point x="264" y="108" type="line"/>
      <point x="279" y="109" type="line"/>
      <point x="283" y="110" type="line"/>
      <point x="287" y="111" type="line"/>
      <point x="291" y="112" type="line"/>
      <point x="295" y="113" type="line"/>
      <point x="296" y="114" type="line"/>
      <point x="297" y="114" type="line"/>
      <point x="298" y="114" type="line"/>
      <point x="298" y="114" type="line"/>
    </contour>
  </outline>
</glyph>
<glyph name="M" format="1">
  <advance width="268"/>
  <unicode hex="004D"/>
  <outline>
    <contour>
      <point x="162" y="84" type="move"/>
      <point x="162" y="94" type="line"/>
      <point x="162" y="106" type="line"/>
      <point x="162" y="119" type="line"/>
      <point x="162" y="134" type="line"/>
      <point x="163" y="151" type="line"/>
      <point x="162" y="167" type="line"/>
      <point x="162" y="179" type="line"/>
      <point x="161" y="194" type="line"/>
      <point x="160" y="210" type="line"/>
      <point x="158" y="225" type="line"/>
      <point x="157" y="239" type="line"/>
      <point x="156" y="252" type="line"/>
      <point x="155" y="265" type="line"/>
      <point x="154" y="275" type="line"/>
      <point x="154" y="278" type="line"/>
      <point x="154" y="289" type="line"/>
      <point x="154" y="292" type="line"/>
      <point x="153" y="297" type="line"/>
      <point x="153" y="301" type="line"/>
      <point x="153" y="304" type="line"/>
      <point x="153" y="307" type="line"/>
      <point x="153" y="308" type="line"/>
      <point x="153" y="308" type="line"/>
      <point x="156" y="305" type="line"/>
      <point x="159" y="297" type="line"/>
      <point x="162" y="294" type="line"/>
      <point x="167" y="285" type="line"/>
      <point x="172" y="274" type="line"/>
      <point x="175" y="271" type="line"/>
      <point x="181" y="258" type="line"/>
      <point x="194" y="244" type="line"/>
      <point x="196" y="240" type="line"/>
      <point x="201" y="225" type="line"/>
      <point x="207" y="213" type="line"/>
      <point x="212" y="202" type="line"/>
      <point x="217" y="191" type="line"/>
      <point x="219" y="188" type="line"/>
      <point x="224" y="177" type="line"/>
      <point x="227" y="173" type="line"/>
      <point x="231" y="163" type="line"/>
      <point x="232" y="161" type="line"/>
      <point x="234" y="158" type="line"/>
      <point x="235" y="155" type="line"/>
      <point x="236" y="153" type="line"/>
      <point x="237" y="152" type="line"/>
      <point x="237" y="151" type="line"/>
      <point x="238" y="151" type="line"/>
      <point x="238" y="151" type="line"/>
      <point x="241" y="153" type="line"/>
      <point x="247" y="164" type="line"/>
      <point x="251" y="174" type="line"/>
      <point x="255" y="186" type="line"/>
      <point x="260" y="200" type="line"/>
      <point x="266" y="214" type="line"/>
      <point x="276" y="230" type="line"/>
      <point x="281" y="245" type="line"/>
      <point x="285" y="255" type="line"/>
      <point x="289" y="269" type="line"/>
      <point x="292" y="273" type="line"/>
      <point x="298" y="287" type="line"/>
      <point x="302" y="296" type="line"/>
      <point x="304" y="300" type="line"/>
      <point x="308" y="304" type="line"/>
      <point x="310" y="308" type="line"/>
      <point x="311" y="310" type="line"/>
      <point x="312" y="312" type="line"/>
      <point x="312" y="312" type="line"/>
      <point x="312" y="302" type="line"/>
      <point x="314" y="293" type="line"/>
      <point x="314" y="282" type="line"/>
      <point x="313" y="270" type="line"/>
      <point x="310" y="255" type="line"/>
      <point x="308" y="238" type="line"/>
      <point x="305" y="219" type="line"/>
      <point x="304" y="200" type="line"/>
      <point x="302" y="181" type="line"/>
      <point x="301" y="169" type="line"/>
      <point x="300" y="152" type="line"/>
      <point x="298" y="136" type="line"/>
      <point x="297" y="122" type="line"/>
      <point x="296" y="109" type="line"/>
      <point x="296" y="106" type="line"/>
      <point x="296" y="93" type="line"/>
      <point x="296" y="89" type="line"/>
      <point x="294" y="78" type="line"/>
      <point x="294" y="76" type="line"/>
      <point x="294" y="72" type="line"/>
      <point x="294" y="69" type="line"/>
      <point x="294" y="66" type="line"/>
      <point x="294" y="64" type="line"/>
      <point x="294" y="63" type="line"/>
      <point x="294" y="62" type="line"/>
      <point x="294" y="62" type="line"/>
      <point x="294" y="62" type="line"/>
    </contour>
  </outline>
</glyph>
<glyph name="N" format="1">
  <advance width="268"/>
  <unicode hex="004E"/>
  <outline>
    <contour>
      <point x="129" y="89" type="move"/>
      <point x="129" y="104" type="line"/>
      <point x="128" y="117" type="line"/>
      <point x="129" y="132" type="line"/>
      <point x="129" y="147" type="line"/>
      <point x="129" y="162" type="line"/>
      <point x="129" y="173" type="line"/>
      <point x="129" y="188" type="line"/>
      <point x="129" y="202" type="line"/>
      <point x="129" y="215" type="line"/>
      <point x="129" y="227" type="line"/>
      <point x="129" y="230" type="line"/>
      <point x="129" y="242" type="line"/>
      <point x="129" y="246" type="line"/>
      <point x="129" y="257" type="line"/>
      <point x="129" y="260" type="line"/>
      <point x="129" y="263" type="line"/>
      <point x="128" y="267" type="line"/>
      <point x="128" y="271" type="line"/>
      <point x="128" y="273" type="line"/>
      <point x="128" y="275" type="line"/>
      <point x="128" y="276" type="line"/>
      <point x="128" y="277" type="line"/>
      <point x="128" y="278" type="line"/>
      <point x="129" y="276" type="line"/>
      <point x="132" y="268" type="line"/>
      <point x="135" y="263" type="line"/>
      <point x="140" y="250" type="line"/>
      <point x="145" y="239" type="line"/>
      <point x="150" y="226" type="line"/>
      <point x="162" y="212" type="line"/>
      <point x="166" y="197" type="line"/>
      <point x="172" y="181" type="line"/>
      <point x="182" y="164" type="line"/>
      <point x="185" y="154" type="line"/>
      <point x="190" y="140" type="line"/>
      <point x="195" y="126" type="line"/>
      <point x="200" y="113" type="line"/>
      <point x="206" y="102" type="line"/>
      <point x="211" y="93" type="line"/>
      <point x="214" y="90" type="line"/>
      <point x="219" y="80" type="line"/>
      <point x="222" y="77" type="line"/>
      <point x="226" y="73" type="line"/>
      <point x="230" y="64" type="line"/>
      <point x="232" y="62" type="line"/>
      <point x="234" y="60" type="line"/>
      <point x="235" y="57" type="line"/>
      <point x="237" y="55" type="line"/>
      <point x="238" y="54" type="line"/>
      <point x="239" y="52" type="line"/>
      <point x="240" y="52" type="line"/>
      <point x="241" y="52" type="line"/>
      <point x="241" y="52" type="line"/>
      <point x="242" y="51" type="line"/>
      <point x="245" y="55" type="line"/>
      <point x="245" y="64" type="line"/>
      <point x="245" y="68" type="line"/>
      <point x="245" y="84" type="line"/>
      <point x="245" y="96" type="line"/>
      <point x="248" y="111" type="line"/>
      <point x="248" y="128" type="line"/>
      <point x="250" y="147" type="line"/>
      <point x="251" y="167" type="line"/>
      <point x="251" y="195" type="line"/>
      <point x="251" y="209" type="line"/>
      <point x="251" y="223" type="line"/>
      <point x="251" y="241" type="line"/>
      <point x="251" y="257" type="line"/>
      <point x="251" y="261" type="line"/>
      <point x="251" y="278" type="line"/>
      <point x="251" y="289" type="line"/>
      <point x="251" y="293" type="line"/>
      <point x="251" y="304" type="line"/>
      <point x="251" y="306" type="line"/>
      <point x="251" y="309" type="line"/>
      <point x="251" y="312" type="line"/>
      <point x="251" y="313" type="line"/>
      <point x="251" y="314" type="line"/>
      <point x="251" y="315" type="line"/>
      <point x="251" y="316" type="line"/>
      <point x="251" y="316" type="line"/>
    </contour>
  </outline>
</glyph>
<glyph name="O" format="1">
  <advance width="268"/>
  <unicode hex="004F"/>
  <outline>
    <contour>
      <point x="163" y="127" type="move"/>
      <point x="162" y="124" type="line"/>
      <point x="162" y="122" type="line"/>
      <point x="162" y="118" type="line"/>
      <point x="162" y="115" type="line"/>
      <point x="162" y="111" type="line"/>
      <point x="162" y="107" type="line"/>
      <point x="162" y="97" type="line"/>
      <point x="162" y="94" type="line"/>
      <point x="161" y="90" type="line"/>
      <point x="162" y="80" type="line"/>
      <point x="164" y="76" type="line"/>
      <point x="168" y="66" type="line"/>
      <point x="171" y="62" type="line"/>
      <point x="177" y="52" type="line"/>
      <point x="181" y="48" type="line"/>
      <point x="187" y="39" type="line"/>
      <point x="197" y="33" type="line"/>
      <point x="203" y="25" type="line"/>
      <point x="207" y="21" type="line"/>
      <point x="212" y="17" type="line"/>
      <point x="217" y="13" type="line"/>
      <point x="223" y="9" type="line"/>
      <point x="228" y="5" type="line"/>
      <point x="233" y="3" type="line"/>
      <point x="237" y="1" type="line"/>
      <point x="240" y="1" type="line"/>
      <point x="244" y="1" type="line"/>
      <point x="248" y="1" type="line"/>
      <point x="252" y="1" type="line"/>
      <point x="255" y="2" type="line"/>
      <point x="261" y="6" type="line"/>
      <point x="266" y="14" type="line"/>
      <point x="268" y="15" type="line"/>
      <point x="274" y="24" type="line"/>
      <point x="278" y="27" type="line"/>
      <point x="283" y="35" type="line"/>
      <point x="286" y="39" type="line"/>
      <point x="291" y="49" type="line"/>
      <point x="293" y="53" type="line"/>
      <point x="296" y="66" type="line"/>
      <point x="299" y="76" type="line"/>
      <point x="301" y="86" type="line"/>
      <point x="303" y="97" type="line"/>
      <point x="304" y="107" type="line"/>
      <point x="306" y="118" type="line"/>
      <point x="307" y="129" type="line"/>
      <point x="307" y="139" type="line"/>
      <point x="307" y="150" type="line"/>
      <point x="307" y="160" type="line"/>
      <point x="307" y="171" type="line"/>
      <point x="306" y="181" type="line"/>
      <point x="304" y="191" type="line"/>
      <point x="300" y="200" type="line"/>
      <point x="297" y="205" type="line"/>
      <point x="292" y="217" type="line"/>
      <point x="289" y="221" type="line"/>
      <point x="283" y="231" type="line"/>
      <point x="280" y="235" type="line"/>
      <point x="275" y="239" type="line"/>
      <point x="268" y="248" type="line"/>
      <point x="265" y="249" type="line"/>
      <point x="260" y="253" type="line"/>
      <point x="254" y="257" type="line"/>
      <point x="249" y="260" type="line"/>
      <point x="244" y="263" type="line"/>
      <point x="239" y="266" type="line"/>
      <point x="234" y="268" type="line"/>
      <point x="229" y="270" type="line"/>
      <point x="225" y="271" type="line"/>
      <point x="221" y="272" type="line"/>
      <point x="217" y="272" type="line"/>
      <point x="214" y="272" type="line"/>
      <point x="213" y="272" type="line"/>
      <point x="209" y="272" type="line"/>
      <point x="208" y="272" type="line"/>
      <point x="205" y="272" type="line"/>
      <point x="203" y="271" type="line"/>
      <point x="200" y="269" type="line"/>
      <point x="197" y="266" type="line"/>
      <point x="195" y="263" type="line"/>
      <point x="193" y="260" type="line"/>
      <point x="191" y="256" type="line"/>
      <point x="187" y="246" type="line"/>
      <point x="185" y="244" type="line"/>
      <point x="183" y="239" type="line"/>
      <point x="180" y="229" type="line"/>
      <point x="178" y="225" type="line"/>
      <point x="175" y="216" type="line"/>
      <point x="173" y="212" type="line"/>
      <point x="171" y="201" type="line"/>
      <point x="169" y="197" type="line"/>
      <point x="167" y="185" type="line"/>
      <point x="166" y="181" type="line"/>
      <point x="165" y="169" type="line"/>
      <point x="164" y="164" type="line"/>
      <point x="163" y="151" type="line"/>
      <point x="162" y="147" type="line"/>
      <point x="161" y="138" type="line"/>
      <point x="161" y="134" type="line"/>
      <point x="161" y="123" type="line"/>
      <point x="161" y="120" type="line"/>
      <point x="161" y="111" type="line"/>
      <point x="161" y="108" type="line"/>
      <point x="161" y="105" type="line"/>
      <point x="161" y="101" type="line"/>
      <point x="161" y="98" type="line"/>
      <point x="161" y="95" type="line"/>
      <point x="161" y="93" type="line"/>
      <point x="161" y="92" type="line"/>
      <point x="161" y="91" type="line"/>
      <point x="161" y="91" type="line"/>
    </contour>
  </outline>
</glyph>
<glyph name="P" format="1">
  <advance width="268"/>
  <unicode hex="0050"/>
  <outline>
    <contour>
      <point x="106" y="279" type="move"/>
      <point x="108" y="269" type="line"/>
      <point x="111" y="260" type="line"/>
      <point x="114" y="250" type="line"/>
      <point x="118" y="239" type="line"/>
      <point x="121" y="228" type="line"/>
      <point x="124" y="216" type="line"/>
      <point x="128" y="204" type="line"/>
      <point x="131" y="192" type="line"/>
      <point x="133" y="180" type="line"/>
      <point x="135" y="168" type="line"/>
      <point x="137" y="157" type="line"/>
      <point x="138" y="146" type="line"/>
      <point x="139" y="143" type="line"/>
      <point x="140" y="132" type="line"/>
      <point x="141" y="128" type="line"/>
      <point x="143" y="116" type="line"/>
      <point x="143" y="113" type="line"/>
      <point x="143" y="103" type="line"/>
      <point x="143" y="99" type="line"/>
      <point x="143" y="95" type="line"/>
      <point x="143" y="85" type="line"/>
      <point x="143" y="82" type="line"/>
      <point x="143" y="78" type="line"/>
      <point x="143" y="69" type="line"/>
      <point x="143" y="67" type="line"/>
      <point x="143" y="64" type="line"/>
      <point x="143" y="60" type="line"/>
      <point x="143" y="57" type="line"/>
      <point x="143" y="54" type="line"/>
      <point x="143" y="52" type="line"/>
      <point x="143" y="51" type="line"/>
      <point x="143" y="51" type="line"/>
      <point x="143" y="50" type="line"/>
      <point x="143" y="53" type="line"/>
      <point x="143" y="56" type="line"/>
      <point x="143" y="66" type="line"/>
      <point x="143" y="69" type="line"/>
      <point x="143" y="78" type="line"/>
      <point x="143" y="82" type="line"/>
      <point x="142" y="93" type="line"/>
      <point x="142" y="98" type="line"/>
      <point x="141" y="111" type="line"/>
      <point x="140" y="121" type="line"/>
      <point x="139" y="132" type="line"/>
      <point x="138" y="142" type="line"/>
      <point x="138" y="153" type="line"/>
      <point x="138" y="163" type="line"/>
      <point x="137" y="173" type="line"/>
      <point x="136" y="182" type="line"/>
      <point x="136" y="184" type="line"/>
      <point x="136" y="195" type="line"/>
      <point x="135" y="199" type="line"/>
      <point x="135" y="210" type="line"/>
      <point x="135" y="213" type="line"/>
      <point x="135" y="223" type="line"/>
      <point x="135" y="226" type="line"/>
      <point x="135" y="235" type="line"/>
      <point x="135" y="238" type="line"/>
      <point x="135" y="242" type="line"/>
      <point x="135" y="251" type="line"/>
      <point x="134" y="254" type="line"/>
      <point x="134" y="257" type="line"/>
      <point x="134" y="261" type="line"/>
      <point x="134" y="265" type="line"/>
      <point x="134" y="268" type="line"/>
      <point x="134" y="272" type="line"/>
      <point x="134" y="275" type="line"/>
      <point x="134" y="278" type="line"/>
      <point x="134" y="281" type="line"/>
      <point x="134" y="284" type="line"/>
      <point x="134" y="286" type="line"/>
      <point x="134" y="287" type="line"/>
      <point x="134" y="290" type="line"/>
      <point x="134" y="291" type="line"/>
      <point x="134" y="293" type="line"/>
      <point x="134" y="294" type="line"/>
      <point x="134" y="297" type="line"/>
      <point x="136" y="299" type="line"/>
      <point x="138" y="301" type="line"/>
      <point x="141" y="304" type="line"/>
      <point x="144" y="305" type="line"/>
      <point x="148" y="308" type="line"/>
      <point x="152" y="310" type="line"/>
      <point x="158" y="311" type="line"/>
      <point x="170" y="312" type="line"/>
      <point x="173" y="312" type="line"/>
      <point x="179" y="312" type="line"/>
      <point x="184" y="312" type="line"/>
      <point x="189" y="312" type="line"/>
      <point x="202" y="312" type="line"/>
      <point x="203" y="312" type="line"/>
      <point x="208" y="312" type="line"/>
      <point x="212" y="312" type="line"/>
      <point x="216" y="312" type="line"/>
      <point x="220" y="312" type="line"/>
      <point x="221" y="312" type="line"/>
      <point x="224" y="312" type="line"/>
      <point x="225" y="312" type="line"/>
      <point x="226" y="312" type="line"/>
      <point x="228" y="311" type="line"/>
      <point x="230" y="310" type="line"/>
      <point x="232" y="307" type="line"/>
      <point x="234" y="304" type="line"/>
      <point x="235" y="301" type="line"/>
      <point x="236" y="297" type="line"/>
      <point x="237" y="293" type="line"/>
      <point x="239" y="284" type="line"/>
      <point x="239" y="282" type="line"/>
      <point x="239" y="278" type="line"/>
      <point x="239" y="269" type="line"/>
      <point x="239" y="266" type="line"/>
      <point x="239" y="262" type="line"/>
      <point x="239" y="253" type="line"/>
      <point x="239" y="250" type="line"/>
      <point x="239" y="247" type="line"/>
      <point x="239" y="238" type="line"/>
      <point x="239" y="235" type="line"/>
      <point x="238" y="232" type="line"/>
      <point x="237" y="228" type="line"/>
      <point x="235" y="223" type="line"/>
      <point x="233" y="220" type="line"/>
      <point x="230" y="216" type="line"/>
      <point x="229" y="212" type="line"/>
      <point x="226" y="209" type="line"/>
      <point x="223" y="206" type="line"/>
      <point x="221" y="204" type="line"/>
      <point x="218" y="201" type="line"/>
      <point x="216" y="200" type="line"/>
      <point x="213" y="199" type="line"/>
      <point x="209" y="197" type="line"/>
      <point x="206" y="196" type="line"/>
      <point x="202" y="195" type="line"/>
      <point x="199" y="194" type="line"/>
      <point x="195" y="193" type="line"/>
      <point x="191" y="192" type="line"/>
      <point x="188" y="192" type="line"/>
      <point x="184" y="192" type="line"/>
      <point x="180" y="192" type="line"/>
      <point x="176" y="192" type="line"/>
      <point x="172" y="192" type="line"/>
      <point x="168" y="192" type="line"/>
      <point x="164" y="192" type="line"/>
      <point x="160" y="192" type="line"/>
      <point x="156" y="192" type="line"/>
      <point x="153" y="192" type="line"/>
      <point x="149" y="192" type="line"/>
      <point x="146" y="192" type="line"/>
      <point x="142" y="193" type="line"/>
      <point x="139" y="193" type="line"/>
      <point x="138" y="194" type="line"/>
      <point x="135" y="194" type="line"/>
      <point x="133" y="195" type="line"/>
      <point x="131" y="195" type="line"/>
      <point x="130" y="196" type="line"/>
      <point x="128" y="197" type="line"/>
      <point x="127" y="197" type="line"/>
      <point x="126" y="198" type="line"/>
      <point x="124" y="198" type="line"/>
      <point x="123" y="199" type="line"/>
      <point x="122" y="200" type="line"/>
      <point x="121" y="200" type="line"/>
      <point x="121" y="200" type="line"/>
    </contour>
  </outline>
</glyph>
<glyph name="Q" format="1">
  <advance width="268"/>
  <unicode hex="0051"/>
  <outline>
    <contour>
      <point x="126" y="245" type="move"/>
      <point x="126" y="254" type="line"/>
      <point x="128" y="257" type="line"/>
      <point x="131" y="261" type="line"/>
      <point x="136" y="270" type="line"/>
      <point x="139" y="273" type="line"/>
      <point x="144" y="277" type="line"/>
      <point x="150" y="281" type="line"/>
      <point x="161" y="286" type="line"/>
      <point x="165" y="288" type="line"/>
      <point x="171" y="291" type="line"/>
      <point x="183" y="293" type="line"/>
      <point x="188" y="294" type="line"/>
      <point x="200" y="296" type="line"/>
      <point x="204" y="297" type="line"/>
      <point x="210" y="297" type="line"/>
      <point x="223" y="297" type="line"/>
      <point x="227" y="297" type="line"/>
      <point x="232" y="296" type="line"/>
      <point x="238" y="294" type="line"/>
      <point x="244" y="291" type="line"/>
      <point x="251" y="282" type="line"/>
      <point x="256" y="279" type="line"/>
      <point x="262" y="269" type="line"/>
      <point x="266" y="265" type="line"/>
      <point x="271" y="253" type="line"/>
      <point x="275" y="244" type="line"/>
      <point x="279" y="235" type="line"/>
      <point x="281" y="224" type="line"/>
      <point x="282" y="214" type="line"/>
      <point x="284" y="202" type="line"/>
      <point x="285" y="191" type="line"/>
      <point x="285" y="180" type="line"/>
      <point x="285" y="169" type="line"/>
      <point x="285" y="158" type="line"/>
      <point x="284" y="148" type="line"/>
      <point x="283" y="138" type="line"/>
      <point x="281" y="129" type="line"/>
      <point x="278" y="124" type="line"/>
      <point x="273" y="112" type="line"/>
      <point x="270" y="109" type="line"/>
      <point x="266" y="105" type="line"/>
      <point x="261" y="97" type="line"/>
      <point x="257" y="93" type="line"/>
      <point x="252" y="89" type="line"/>
      <point x="246" y="86" type="line"/>
      <point x="235" y="82" type="line"/>
      <point x="231" y="81" type="line"/>
      <point x="226" y="80" type="line"/>
      <point x="221" y="79" type="line"/>
      <point x="208" y="79" type="line"/>
      <point x="205" y="79" type="line"/>
      <point x="199" y="79" type="line"/>
      <point x="193" y="79" type="line"/>
      <point x="181" y="81" type="line"/>
      <point x="177" y="83" type="line"/>
      <point x="171" y="86" type="line"/>
      <point x="166" y="90" type="line"/>
      <point x="160" y="99" type="line"/>
      <point x="156" y="102" type="line"/>
      <point x="151" y="107" type="line"/>
      <point x="147" y="111" type="line"/>
      <point x="142" y="120" type="line"/>
      <point x="139" y="123" type="line"/>
      <point x="136" y="127" type="line"/>
      <point x="133" y="137" type="line"/>
      <point x="130" y="141" type="line"/>
      <point x="128" y="152" type="line"/>
      <point x="127" y="155" type="line"/>
      <point x="126" y="167" type="line"/>
      <point x="126" y="171" type="line"/>
      <point x="126" y="184" type="line"/>
      <point x="126" y="193" type="line"/>
      <point x="126" y="201" type="line"/>
      <point x="126" y="206" type="line"/>
      <point x="126" y="218" type="line"/>
      <point x="126" y="222" type="line"/>
      <point x="127" y="234" type="line"/>
      <point x="128" y="238" type="line"/>
      <point x="130" y="242" type="line"/>
      <point x="133" y="253" type="line"/>
      <point x="134" y="256" type="line"/>
      <point x="137" y="260" type="line"/>
      <point x="140" y="269" type="line"/>
      <point x="141" y="270" type="line"/>
      <point x="144" y="273" type="line"/>
      <point x="145" y="276" type="line"/>
      <point x="148" y="279" type="line"/>
      <point x="149" y="281" type="line"/>
      <point x="150" y="282" type="line"/>
      <point x="152" y="284" type="line"/>
      <point x="153" y="285" type="line"/>
      <point x="154" y="286" type="line"/>
      <point x="154" y="286" type="line"/>
    </contour>
    <contour>
      <point x="239" y="125" type="move"/>
      <point x="243" y="122" type="line"/>
      <point x="246" y="119" type="line"/>
      <point x="251" y="115" type="line"/>
      <point x="256" y="111" type="line"/>
      <point x="262" y="107" type="line"/>
      <point x="267" y="103" type="line"/>
      <point x="272" y="100" type="line"/>
      <point x="277" y="97" type="line"/>
      <point x="283" y="93" type="line"/>
      <point x="288" y="90" type="line"/>
      <point x="293" y="87" type="line"/>
      <point x="297" y="86" type="line"/>
      <point x="302" y="84" type="line"/>
      <point x="305" y="83" type="line"/>
      <point x="305" y="83" type="line"/>
    </contour>
  </outline>
</glyph>
<glyph name="R" format="1">
  <advance width="268"/>
  <unicode hex="0052"/>
  <outline>
    <contour>
      <point x="172" y="282" type="move"/>
      <point x="173" y="281" type="line"/>
      <point x="174" y="272" type="line"/>
      <point x="174" y="269" type="line"/>
      <point x="176" y="258" type="line"/>
      <point x="177" y="254" type="line"/>
      <point x="179" y="242" type="line"/>
      <point x="181" y="233" type="line"/>
      <point x="183" y="224" type="line"/>
      <point x="184" y="214" type="line"/>
      <point x="187" y="204" type="line"/>
      <point x="189" y="194" type="line"/>
      <point x="191" y="185" type="line"/>
      <point x="192" y="183" type="line"/>
      <point x="194" y="172" type="line"/>
      <point x="195" y="168" type="line"/>
      <point x="196" y="157" type="line"/>
      <point x="197" y="154" type="line"/>
      <point x="198" y="145" type="line"/>
      <point x="199" y="142" type="line"/>
      <point x="200" y="138" type="line"/>
      <point x="200" y="128" type="line"/>
      <point x="200" y="126" type="line"/>
      <point x="200" y="122" type="line"/>
      <point x="200" y="119" type="line"/>
      <point x="200" y="115" type="line"/>
      <point x="200" y="111" type="line"/>
      <point x="200" y="108" type="line"/>
      <point x="200" y="105" type="line"/>
      <point x="200" y="103" type="line"/>
      <point x="200" y="102" type="line"/>
      <point x="200" y="99" type="line"/>
      <point x="200" y="99" type="line"/>
      <point x="200" y="96" type="line"/>
      <point x="200" y="95" type="line"/>
      <point x="200" y="93" type="line"/>
      <point x="200" y="92" type="line"/>
      <point x="200" y="91" type="line"/>
      <point x="200" y="91" type="line"/>
      <point x="200" y="90" type="line"/>
      <point x="200" y="89" type="line"/>
      <point x="200" y="88" type="line"/>
      <point x="200" y="90" type="line"/>
      <point x="200" y="93" type="line"/>
      <point x="200" y="96" type="line"/>
      <point x="200" y="99" type="line"/>
      <point x="200" y="103" type="line"/>
      <point x="200" y="107" type="line"/>
      <point x="200" y="116" type="line"/>
      <point x="200" y="119" type="line"/>
      <point x="200" y="123" type="line"/>
      <point x="200" y="133" type="line"/>
      <point x="199" y="136" type="line"/>
      <point x="199" y="146" type="line"/>
      <point x="199" y="147" type="line"/>
      <point x="198" y="156" type="line"/>
      <point x="197" y="159" type="line"/>
      <point x="196" y="163" type="line"/>
      <point x="195" y="173" type="line"/>
      <point x="195" y="176" type="line"/>
      <point x="195" y="180" type="line"/>
      <point x="194" y="189" type="line"/>
      <point x="194" y="191" type="line"/>
      <point x="193" y="195" type="line"/>
      <point x="192" y="199" type="line"/>
      <point x="192" y="203" type="line"/>
      <point x="191" y="207" type="line"/>
      <point x="191" y="210" type="line"/>
      <point x="191" y="214" type="line"/>
      <point x="191" y="217" type="line"/>
      <point x="191" y="220" type="line"/>
      <point x="190" y="223" type="line"/>
      <point x="190" y="226" type="line"/>
      <point x="190" y="229" type="line"/>
      <point x="189" y="231" type="line"/>
      <point x="189" y="234" type="line"/>
      <point x="189" y="236" type="line"/>
      <point x="188" y="239" type="line"/>
      <point x="188" y="241" type="line"/>
      <point x="188" y="244" type="line"/>
      <point x="188" y="246" type="line"/>
      <point x="188" y="247" type="line"/>
      <point x="188" y="250" type="line"/>
      <point x="188" y="252" type="line"/>
      <point x="187" y="253" type="line"/>
      <point x="187" y="255" type="line"/>
      <point x="187" y="256" type="line"/>
      <point x="187" y="259" type="line"/>
      <point x="187" y="260" type="line"/>
      <point x="187" y="262" type="line"/>
      <point x="187" y="263" type="line"/>
      <point x="187" y="266" type="line"/>
      <point x="187" y="267" type="line"/>
      <point x="187" y="268" type="line"/>
      <point x="187" y="270" type="line"/>
      <point x="187" y="271" type="line"/>
      <point x="187" y="273" type="line"/>
      <point x="187" y="274" type="line"/>
      <point x="187" y="277" type="line"/>
      <point x="187" y="279" type="line"/>
      <point x="189" y="282" type="line"/>
      <point x="191" y="284" type="line"/>
      <point x="194" y="287" type="line"/>
      <point x="197" y="289" type="line"/>
      <point x="200" y="292" type="line"/>
      <point x="203" y="294" type="line"/>
      <point x="207" y="297" type="line"/>
      <point x="210" y="298" type="line"/>
      <point x="214" y="301" type="line"/>
      <point x="218" y="302" type="line"/>
      <point x="222" y="303" type="line"/>
      <point x="226" y="305" type="line"/>
      <point x="230" y="306" type="line"/>
      <point x="234" y="307" type="line"/>
      <point x="238" y="308" type="line"/>
      <point x="241" y="308" type="line"/>
      <point x="245" y="308" type="line"/>
      <point x="248" y="308" type="line"/>
      <point x="252" y="308" type="line"/>
      <point x="256" y="308" type="line"/>
      <point x="259" y="308" type="line"/>
      <point x="263" y="308" type="line"/>
      <point x="267" y="308" type="line"/>
      <point x="271" y="307" type="line"/>
      <point x="275" y="305" type="line"/>
      <point x="279" y="302" type="line"/>
      <point x="283" y="300" type="line"/>
      <point x="287" y="297" type="line"/>
      <point x="290" y="293" type="line"/>
      <point x="293" y="290" type="line"/>
      <point x="295" y="287" type="line"/>
      <point x="297" y="284" type="line"/>
      <point x="299" y="281" type="line"/>
      <point x="300" y="278" type="line"/>
      <point x="301" y="275" type="line"/>
      <point x="301" y="272" type="line"/>
      <point x="301" y="270" type="line"/>
      <point x="301" y="267" type="line"/>
      <point x="301" y="264" type="line"/>
      <point x="301" y="262" type="line"/>
      <point x="301" y="259" type="line"/>
      <point x="301" y="255" type="line"/>
      <point x="301" y="252" type="line"/>
      <point x="301" y="249" type="line"/>
      <point x="300" y="245" type="line"/>
      <point x="298" y="241" type="line"/>
      <point x="294" y="231" type="line"/>
      <point x="291" y="229" type="line"/>
      <point x="288" y="225" type="line"/>
      <point x="284" y="221" type="line"/>
      <point x="279" y="212" type="line"/>
      <point x="277" y="211" type="line"/>
      <point x="273" y="207" type="line"/>
      <point x="269" y="204" type="line"/>
      <point x="265" y="200" type="line"/>
      <point x="262" y="197" type="line"/>
      <point x="258" y="195" type="line"/>
      <point x="256" y="193" type="line"/>
      <point x="254" y="192" type="line"/>
      <point x="251" y="191" type="line"/>
      <point x="250" y="190" type="line"/>
      <point x="247" y="189" type="line"/>
      <point x="246" y="189" type="line"/>
      <point x="243" y="189" type="line"/>
      <point x="242" y="189" type="line"/>
      <point x="239" y="189" type="line"/>
      <point x="237" y="189" type="line"/>
      <point x="234" y="189" type="line"/>
      <point x="233" y="189" type="line"/>
      <point x="229" y="189" type="line"/>
      <point x="228" y="189" type="line"/>
      <point x="225" y="189" type="line"/>
      <point x="223" y="189" type="line"/>
      <point x="222" y="189" type="line"/>
      <point x="221" y="189" type="line"/>
      <point x="219" y="189" type="line"/>
      <point x="218" y="189" type="line"/>
      <point x="217" y="189" type="line"/>
      <point x="216" y="189" type="line"/>
      <point x="215" y="189" type="line"/>
      <point x="214" y="189" type="line"/>
      <point x="214" y="189" type="line"/>
      <point x="214" y="189" type="line"/>
      <point x="218" y="189" type="line"/>
      <point x="224" y="189" type="line"/>
      <point x="228" y="189" type="line"/>
      <point x="241" y="189" type="line"/>
      <point x="242" y="189" type="line"/>
      <point x="247" y="189" type="line"/>
      <point x="252" y="191" type="line"/>
      <point x="258" y="191" type="line"/>
      <point x="263" y="190" type="line"/>
      <point x="269" y="189" type="line"/>
      <point x="274" y="187" type="line"/>
      <point x="279" y="185" type="line"/>
      <point x="283" y="183" type="line"/>
      <point x="287" y="181" type="line"/>
      <point x="291" y="179" type="line"/>
      <point x="293" y="177" type="line"/>
      <point x="296" y="174" type="line"/>
      <point x="298" y="171" type="line"/>
      <point x="300" y="168" type="line"/>
      <point x="301" y="165" type="line"/>
      <point x="302" y="162" type="line"/>
      <point x="302" y="158" type="line"/>
      <point x="302" y="155" type="line"/>
      <point x="302" y="151" type="line"/>
      <point x="302" y="147" type="line"/>
      <point x="302" y="138" type="line"/>
      <point x="302" y="136" type="line"/>
      <point x="302" y="126" type="line"/>
      <point x="302" y="125" type="line"/>
      <point x="302" y="115" type="line"/>
      <point x="302" y="114" type="line"/>
      <point x="302" y="105" type="line"/>
      <point x="302" y="102" type="line"/>
      <point x="302" y="98" type="line"/>
      <point x="301" y="88" type="line"/>
      <point x="300" y="86" type="line"/>
      <point x="299" y="83" type="line"/>
      <point x="299" y="80" type="line"/>
      <point x="299" y="77" type="line"/>
      <point x="299" y="75" type="line"/>
      <point x="299" y="74" type="line"/>
      <point x="299" y="73" type="line"/>
      <point x="299" y="72" type="line"/>
      <point x="299" y="71" type="line"/>
      <point x="299" y="71" type="line"/>
      <point x="299" y="70" type="line"/>
      <point x="299" y="70" type="line"/>
    </contour>
  </outline>
</glyph>
<glyph name="S" format="1">
  <advance width="268"/>
  <unicode hex="0053"/>
  <outline>
    <contour>
      <point x="316" y="240" type="move"/>
      <point x="318" y="243" type="line"/>
      <point x="320" y="252" type="line"/>
      <point x="321" y="255" type="line"/>
      <point x="323" y="264" type="line"/>
      <point x="323" y="266" type="line"/>
      <point x="325" y="270" type="line"/>
      <point x="326" y="281" type="line"/>
      <point x="326" y="284" type="line"/>
      <point x="326" y="293" type="line"/>
      <point x="326" y="296" type="line"/>
      <point x="326" y="299" type="line"/>
      <point x="326" y="308" type="line"/>
      <point x="326" y="309" type="line"/>
      <point x="323" y="313" type="line"/>
      <point x="320" y="318" type="line"/>
      <point x="316" y="322" type="line"/>
      <point x="311" y="325" type="line"/>
      <point x="306" y="328" type="line"/>
      <point x="294" y="332" type="line"/>
      <point x="290" y="334" type="line"/>
      <point x="285" y="336" type="line"/>
      <point x="280" y="338" type="line"/>
      <point x="268" y="340" type="line"/>
      <point x="264" y="340" type="line"/>
      <point x="259" y="341" type="line"/>
      <point x="254" y="342" type="line"/>
      <point x="240" y="342" type="line"/>
      <point x="238" y="342" type="line"/>
      <point x="233" y="342" type="line"/>
      <point x="228" y="341" type="line"/>
      <point x="222" y="339" type="line"/>
      <point x="216" y="336" type="line"/>
      <point x="210" y="333" type="line"/>
      <point x="203" y="325" type="line"/>
      <point x="199" y="321" type="line"/>
      <point x="194" y="317" type="line"/>
      <point x="190" y="313" type="line"/>
      <point x="185" y="304" type="line"/>
      <point x="184" y="301" type="line"/>
      <point x="182" y="292" type="line"/>
      <point x="180" y="288" type="line"/>
      <point x="180" y="278" type="line"/>
      <point x="180" y="275" type="line"/>
      <point x="180" y="265" type="line"/>
      <point x="182" y="262" type="line"/>
      <point x="187" y="252" type="line"/>
      <point x="199" y="242" type="line"/>
      <point x="203" y="239" type="line"/>
      <point x="216" y="230" type="line"/>
      <point x="221" y="227" type="line"/>
      <point x="238" y="217" type="line"/>
      <point x="243" y="213" type="line"/>
      <point x="260" y="204" type="line"/>
      <point x="266" y="200" type="line"/>
      <point x="281" y="191" type="line"/>
      <point x="286" y="188" type="line"/>
      <point x="301" y="178" type="line"/>
      <point x="305" y="175" type="line"/>
      <point x="317" y="165" type="line"/>
      <point x="321" y="162" type="line"/>
      <point x="327" y="152" type="line"/>
      <point x="331" y="148" type="line"/>
      <point x="337" y="138" type="line"/>
      <point x="338" y="135" type="line"/>
      <point x="342" y="126" type="line"/>
      <point x="343" y="123" type="line"/>
      <point x="345" y="111" type="line"/>
      <point x="345" y="108" type="line"/>
      <point x="345" y="99" type="line"/>
      <point x="345" y="96" type="line"/>
      <point x="343" y="91" type="line"/>
      <point x="338" y="82" type="line"/>
      <point x="334" y="79" type="line"/>
      <point x="323" y="75" type="line"/>
      <point x="319" y="73" type="line"/>
      <point x="307" y="69" type="line"/>
      <point x="302" y="67" type="line"/>
      <point x="289" y="65" type="line"/>
      <point x="284" y="64" type="line"/>
      <point x="269" y="64" type="line"/>
      <point x="264" y="64" type="line"/>
      <point x="250" y="64" type="line"/>
      <point x="245" y="65" type="line"/>
      <point x="231" y="68" type="line"/>
      <point x="227" y="70" type="line"/>
      <point x="221" y="73" type="line"/>
      <point x="209" y="78" type="line"/>
      <point x="205" y="85" type="line"/>
      <point x="201" y="88" type="line"/>
      <point x="197" y="91" type="line"/>
      <point x="193" y="100" type="line"/>
      <point x="190" y="103" type="line"/>
      <point x="188" y="107" type="line"/>
      <point x="185" y="116" type="line"/>
      <point x="184" y="119" type="line"/>
      <point x="183" y="122" type="line"/>
      <point x="182" y="126" type="line"/>
      <point x="182" y="130" type="line"/>
      <point x="182" y="133" type="line"/>
      <point x="182" y="135" type="line"/>
      <point x="182" y="136" type="line"/>
      <point x="182" y="137" type="line"/>
      <point x="182" y="138" type="line"/>
      <point x="182" y="138" type="line"/>
    </contour>
    <contour>
      <point x="262" y="213" type="move"/>
      <point x="259" y="210" type="line"/>
      <point x="256" y="206" type="line"/>
      <point x="252" y="202" type="line"/>
      <point x="246" y="194" type="line"/>
      <point x="244" y="191" type="line"/>
      <point x="240" y="188" type="line"/>
      <point x="237" y="184" type="line"/>
      <point x="234" y="182" type="line"/>
      <point x="233" y="180" type="line"/>
      <point x="232" y="179" type="line"/>
      <point x="231" y="177" type="line"/>
      <point x="231" y="177" type="line"/>
    </contour>
    <contour>
      <point x="273" y="205" type="move"/>
      <point x="271" y="203" type="line"/>
      <point x="267" y="200" type="line"/>
      <point x="263" y="196" type="line"/>
      <point x="260" y="193" type="line"/>
      <point x="257" y="190" type="line"/>
      <point x="255" y="187" type="line"/>
      <point x="253" y="185" type="line"/>
      <point x="252" y="184" type="line"/>
      <point x="251" y="183" type="line"/>
      <point x="250" y="182" type="line"/>
      <point x="250" y="182" type="line"/>
    </contour>
  </outline>
</glyph>
<glyph name="T" format="1">
  <advance width="268"/>
  <unicode hex="0054"/>
  <outline>
    <contour>
      <point x="303" y="279" type="move"/>
      <point x="286" y="283" type="line"/>
      <point x="281" y="283" type="line"/>
      <point x="263" y="284" type="line"/>
      <point x="248" y="284" type="line"/>
      <point x="232" y="284" type="line"/>
      <point x="215" y="284" type="line"/>
      <point x="197" y="284" type="line"/>
      <point x="180" y="284" type="line"/>
      <point x="162" y="284" type="line"/>
      <point x="156" y="284" type="line"/>
      <point x="136" y="283" type="line"/>
      <point x="122" y="281" type="line"/>
      <point x="118" y="280" type="line"/>
      <point x="105" y="279" type="line"/>
      <point x="105" y="279" type="line"/>
    </contour>
    <contour>
      <point x="195" y="278" type="move"/>
      <point x="197" y="270" type="line"/>
      <point x="198" y="258" type="line"/>
      <point x="200" y="245" type="line"/>
      <point x="203" y="231" type="line"/>
      <point x="204" y="216" type="line"/>
      <point x="207" y="200" type="line"/>
      <point x="209" y="190" type="line"/>
      <point x="210" y="175" type="line"/>
      <point x="213" y="161" type="line"/>
      <point x="214" y="147" type="line"/>
      <point x="216" y="135" type="line"/>
      <point x="217" y="131" type="line"/>
      <point x="218" y="118" type="line"/>
      <point x="219" y="114" type="line"/>
      <point x="220" y="104" type="line"/>
      <point x="221" y="102" type="line"/>
      <point x="221" y="102" type="line"/>
    </contour>
  </outline>
</glyph>
<glyph name="U" format="1">
  <advance width="268"/>
  <unicode hex="0055"/>
  <outline>
    <contour>
      <point x="257" y="281" type="move"/>
      <point x="257" y="270" type="line"/>
      <point x="257" y="266" type="line"/>
      <point x="257" y="252" type="line"/>
      <point x="257" y="242" type="line"/>
      <point x="257" y="232" type="line"/>
      <point x="257" y="222" type="line"/>
      <point x="258" y="212" type="line"/>
      <point x="258" y="202" type="line"/>
      <point x="258" y="192" type="line"/>
      <point x="258" y="182" type="line"/>
      <point x="258" y="173" type="line"/>
      <point x="258" y="164" type="line"/>
      <point x="258" y="155" type="line"/>
      <point x="258" y="151" type="line"/>
      <point x="258" y="139" type="line"/>
      <point x="257" y="135" type="line"/>
      <point x="256" y="124" type="line"/>
      <point x="254" y="120" type="line"/>
      <point x="251" y="110" type="line"/>
      <point x="250" y="108" type="line"/>
      <point x="247" y="100" type="line"/>
      <point x="245" y="97" type="line"/>
      <point x="242" y="93" type="line"/>
      <point x="239" y="89" type="line"/>
      <point x="236" y="85" type="line"/>
      <point x="233" y="82" type="line"/>
      <point x="230" y="79" type="line"/>
      <point x="227" y="77" type="line"/>
      <point x="224" y="76" type="line"/>
      <point x="221" y="75" type="line"/>
      <point x="218" y="75" type="line"/>
      <point x="215" y="75" type="line"/>
      <point x="211" y="75" type="line"/>
      <point x="207" y="75" type="line"/>
      <point x="203" y="76" type="line"/>
      <point x="197" y="78" type="line"/>
      <point x="192" y="81" type="line"/>
      <point x="188" y="84" type="line"/>
      <point x="183" y="88" type="line"/>
      <point x="179" y="92" type="line"/>
      <point x="175" y="96" type="line"/>
      <point x="171" y="100" type="line"/>
      <point x="166" y="109" type="line"/>
      <point x="163" y="111" type="line"/>
      <point x="160" y="115" type="line"/>
      <point x="158" y="118" type="line"/>
      <point x="156" y="123" type="line"/>
      <point x="153" y="132" type="line"/>
      <point x="152" y="134" type="line"/>
      <point x="151" y="144" type="line"/>
      <point x="150" y="147" type="line"/>
      <point x="148" y="157" type="line"/>
      <point x="148" y="160" type="line"/>
      <point x="148" y="171" type="line"/>
      <point x="148" y="174" type="line"/>
      <point x="148" y="186" type="line"/>
      <point x="148" y="189" type="line"/>
      <point x="148" y="194" type="line"/>
      <point x="148" y="205" type="line"/>
      <point x="148" y="209" type="line"/>
      <point x="148" y="219" type="line"/>
      <point x="148" y="222" type="line"/>
      <point x="148" y="226" type="line"/>
      <point x="148" y="235" type="line"/>
      <point x="148" y="236" type="line"/>
      <point x="148" y="239" type="line"/>
      <point x="148" y="242" type="line"/>
      <point x="148" y="245" type="line"/>
      <point x="148" y="248" type="line"/>
      <point x="148" y="250" type="line"/>
      <point x="148" y="252" type="line"/>
      <point x="148" y="254" type="line"/>
      <point x="148" y="257" type="line"/>
      <point x="148" y="259" type="line"/>
      <point x="148" y="262" type="line"/>
      <point x="148" y="264" type="line"/>
      <point x="148" y="267" type="line"/>
      <point x="148" y="268" type="line"/>
      <point x="148" y="270" type="line"/>
      <point x="148" y="271" type="line"/>
      <point x="148" y="272" type="line"/>
      <point x="148" y="273" type="line"/>
      <point x="148" y="273" type="line"/>
      <point x="148" y="273" type="line"/>
    </contour>
  </outline>
</glyph>
<glyph name="V" format="1">
  <advance width="268"/>
  <unicode hex="0056"/>
  <outline>
    <contour>
      <point x="269" y="289" type="move"/>
      <point x="263" y="273" type="line"/>
      <point x="261" y="269" type="line"/>
      <point x="256" y="254" type="line"/>
      <point x="252" y="242" type="line"/>
      <point x="248" y="230" type="line"/>
      <point x="244" y="217" type="line"/>
      <point x="240" y="205" type="line"/>
      <point x="236" y="192" type="line"/>
      <point x="233" y="179" type="line"/>
      <point x="229" y="168" type="line"/>
      <point x="226" y="157" type="line"/>
      <point x="224" y="146" type="line"/>
      <point x="223" y="144" type="line"/>
      <point x="220" y="132" type="line"/>
      <point x="219" y="129" type="line"/>
      <point x="217" y="119" type="line"/>
      <point x="217" y="116" type="line"/>
      <point x="215" y="112" type="line"/>
      <point x="214" y="108" type="line"/>
      <point x="213" y="104" type="line"/>
      <point x="213" y="101" type="line"/>
      <point x="213" y="98" type="line"/>
      <point x="213" y="96" type="line"/>
      <point x="212" y="95" type="line"/>
      <point x="212" y="93" type="line"/>
      <point x="212" y="92" type="line"/>
      <point x="212" y="91" type="line"/>
      <point x="212" y="90" type="line"/>
      <point x="212" y="90" type="line"/>
      <point x="212" y="89" type="line"/>
      <point x="212" y="90" type="line"/>
      <point x="212" y="93" type="line"/>
      <point x="210" y="96" type="line"/>
      <point x="209" y="106" type="line"/>
      <point x="208" y="109" type="line"/>
      <point x="207" y="120" type="line"/>
      <point x="206" y="124" type="line"/>
      <point x="202" y="141" type="line"/>
      <point x="199" y="153" type="line"/>
      <point x="196" y="157" type="line"/>
      <point x="192" y="172" type="line"/>
      <point x="188" y="184" type="line"/>
      <point x="184" y="195" type="line"/>
      <point x="179" y="205" type="line"/>
      <point x="175" y="215" type="line"/>
      <point x="170" y="225" type="line"/>
      <point x="165" y="235" type="line"/>
      <point x="161" y="240" type="line"/>
      <point x="156" y="248" type="line"/>
      <point x="152" y="253" type="line"/>
      <point x="147" y="262" type="line"/>
      <point x="144" y="266" type="line"/>
      <point x="140" y="270" type="line"/>
      <point x="137" y="274" type="line"/>
      <point x="133" y="278" type="line"/>
      <point x="131" y="281" type="line"/>
      <point x="130" y="284" type="line"/>
      <point x="128" y="287" type="line"/>
      <point x="127" y="288" type="line"/>
      <point x="126" y="290" type="line"/>
      <point x="125" y="291" type="line"/>
      <point x="124" y="292" type="line"/>
      <point x="124" y="293" type="line"/>
      <point x="124" y="293" type="line"/>
    </contour>
  </outline>
</glyph>
<glyph name="W" format="1">
  <advance width="268"/>
  <unicode hex="0057"/>
  <outline>
    <contour>
      <point x="133" y="276" type="move"/>
      <point x="137" y="265" type="line"/>
      <point x="141" y="256" type="line"/>
      <point x="145" y="246" type="line"/>
      <point x="148" y="235" type="line"/>
      <point x="153" y="224" type="line"/>
      <point x="156" y="212" type="line"/>
      <point x="160" y="200" type="line"/>
      <point x="164" y="188" type="line"/>
      <point x="167" y="176" type="line"/>
      <point x="169" y="164" type="line"/>
      <point x="172" y="152" type="line"/>
      <point x="174" y="140" type="line"/>
      <point x="175" y="127" type="line"/>
      <point x="177" y="115" type="line"/>
      <point x="178" y="102" type="line"/>
      <point x="179" y="90" type="line"/>
      <point x="180" y="79" type="line"/>
      <point x="180" y="68" type="line"/>
      <point x="180" y="58" type="line"/>
      <point x="180" y="55" type="line"/>
      <point x="180" y="45" type="line"/>
      <point x="180" y="41" type="line"/>
      <point x="180" y="37" type="line"/>
      <point x="180" y="33" type="line"/>
      <point x="180" y="30" type="line"/>
      <point x="180" y="27" type="line"/>
      <point x="180" y="26" type="line"/>
      <point x="180" y="26" type="line"/>
      <point x="180" y="26" type="line"/>
      <point x="182" y="28" type="line"/>
      <point x="183" y="31" type="line"/>
      <point x="184" y="34" type="line"/>
      <point x="186" y="37" type="line"/>
      <point x="187" y="41" type="line"/>
      <point x="189" y="51" type="line"/>
      <point x="189" y="54" type="line"/>
      <point x="192" y="63" type="line"/>
      <point x="194" y="67" type="line"/>
      <point x="197" y="78" type="line"/>
      <point x="198" y="82" type="line"/>
      <point x="201" y="95" type="line"/>
      <point x="203" y="105" type="line"/>
      <point x="206" y="113" type="line"/>
      <point x="206" y="116" type="line"/>
      <point x="208" y="126" type="line"/>
      <point x="209" y="129" type="line"/>
      <point x="210" y="133" type="line"/>
      <point x="211" y="138" type="line"/>
      <point x="212" y="141" type="line"/>
      <point x="212" y="144" type="line"/>
      <point x="212" y="145" type="line"/>
      <point x="212" y="146" type="line"/>
      <point x="214" y="144" type="line"/>
      <point x="216" y="135" type="line"/>
      <point x="216" y="132" type="line"/>
      <point x="220" y="122" type="line"/>
      <point x="222" y="118" type="line"/>
      <point x="226" y="107" type="line"/>
      <point x="229" y="103" type="line"/>
      <point x="232" y="99" type="line"/>
      <point x="237" y="88" type="line"/>
      <point x="239" y="85" type="line"/>
      <point x="243" y="81" type="line"/>
      <point x="249" y="72" type="line"/>
      <point x="252" y="70" type="line"/>
      <point x="257" y="67" type="line"/>
      <point x="261" y="64" type="line"/>
      <point x="266" y="61" type="line"/>
      <point x="270" y="58" type="line"/>
      <point x="274" y="55" type="line"/>
      <point x="277" y="54" type="line"/>
      <point x="280" y="52" type="line"/>
      <point x="282" y="51" type="line"/>
      <point x="284" y="50" type="line"/>
      <point x="285" y="50" type="line"/>
      <point x="286" y="50" type="line"/>
      <point x="287" y="50" type="line"/>
      <point x="289" y="50" type="line"/>
      <point x="289" y="50" type="line"/>
      <point x="292" y="52" type="line"/>
      <point x="295" y="61" type="line"/>
      <point x="297" y="71" type="line"/>
      <point x="299" y="82" type="line"/>
      <point x="300" y="97" type="line"/>
      <point x="301" y="113" type="line"/>
      <point x="303" y="138" type="line"/>
      <point x="304" y="159" type="line"/>
      <point x="305" y="174" type="line"/>
      <point x="306" y="195" type="line"/>
      <point x="306" y="207" type="line"/>
      <point x="306" y="225" type="line"/>
      <point x="306" y="240" type="line"/>
      <point x="306" y="244" type="line"/>
      <point x="306" y="259" type="line"/>
      <point x="306" y="269" type="line"/>
      <point x="306" y="272" type="line"/>
      <point x="306" y="281" type="line"/>
      <point x="306" y="282" type="line"/>
      <point x="306" y="285" type="line"/>
      <point x="306" y="288" type="line"/>
      <point x="306" y="289" type="line"/>
      <point x="306" y="290" type="line"/>
      <point x="306" y="291" type="line"/>
      <point x="306" y="292" type="line"/>
      <point x="306" y="292" type="line"/>
      <point x="306" y="292" type="line"/>
    </contour>
  </outline>
</glyph>
<glyph name="X" format="1">
  <advance width="268"/>
  <unicode hex="0058"/>
  <outline>
    <contour>
      <point x="268" y="70" type="move"/>
      <point x="264" y="79" type="line"/>
      <point x="261" y="83" type="line"/>
      <point x="256" y="96" type="line"/>
      <point x="250" y="109" type="line"/>
      <point x="245" y="120" type="line"/>
      <point x="233" y="133" type="line"/>
      <point x="228" y="146" type="line"/>
      <point x="222" y="159" type="line"/>
      <point x="210" y="173" type="line"/>
      <point x="204" y="187" type="line"/>
      <point x="193" y="201" type="line"/>
      <point x="191" y="205" type="line"/>
      <point x="185" y="221" type="line"/>
      <point x="174" y="233" type="line"/>
      <point x="170" y="242" type="line"/>
      <point x="168" y="245" type="line"/>
      <point x="162" y="255" type="line"/>
      <point x="159" y="259" type="line"/>
      <point x="154" y="268" type="line"/>
      <point x="152" y="271" type="line"/>
      <point x="149" y="274" type="line"/>
      <point x="147" y="277" type="line"/>
      <point x="145" y="279" type="line"/>
      <point x="144" y="282" type="line"/>
      <point x="143" y="282" type="line"/>
      <point x="143" y="283" type="line"/>
      <point x="143" y="283" type="line"/>
    </contour>
    <contour>
      <point x="311" y="284" type="move"/>
      <point x="305" y="276" type="line"/>
      <point x="294" y="271" type="line"/>
      <point x="287" y="261" type="line"/>
      <point x="273" y="249" type="line"/>
      <point x="261" y="237" type="line"/>
      <point x="248" y="223" type="line"/>
      <point x="234" y="209" type="line"/>
      <point x="220" y="195" type="line"/>
      <point x="206" y="180" type="line"/>
      <point x="192" y="165" type="line"/>
      <point x="180" y="151" type="line"/>
      <point x="167" y="137" type="line"/>
      <point x="163" y="133" type="line"/>
      <point x="149" y="117" type="line"/>
      <point x="143" y="107" type="line"/>
      <point x="130" y="96" type="line"/>
      <point x="128" y="94" type="line"/>
      <point x="122" y="85" type="line"/>
      <point x="118" y="82" type="line"/>
      <point x="113" y="78" type="line"/>
      <point x="108" y="74" type="line"/>
      <point x="105" y="71" type="line"/>
      <point x="101" y="68" type="line"/>
      <point x="99" y="66" type="line"/>
      <point x="98" y="65" type="line"/>
      <point x="98" y="64" type="line"/>
      <point x="97" y="63" type="line"/>
      <point x="96" y="62" type="line"/>
      <point x="96" y="62" type="line"/>
    </contour>
  </outline>
</glyph>
<glyph name="Y" format="1">
  <advance width="268"/>
  <unicode hex="0059"/>
  <outline>
    <contour>
      <point x="255" y="319" type="move"/>
      <point x="253" y="316" type="line"/>
      <point x="248" y="306" type="line"/>
      <point x="245" y="302" type="line"/>
      <point x="239" y="289" type="line"/>
      <point x="234" y="279" type="line"/>
      <point x="229" y="269" type="line"/>
      <point x="224" y="259" type="line"/>
      <point x="218" y="249" type="line"/>
      <point x="214" y="239" type="line"/>
      <point x="211" y="237" type="line"/>
      <point x="206" y="227" type="line"/>
      <point x="203" y="224" type="line"/>
      <point x="201" y="220" type="line"/>
      <point x="198" y="216" type="line"/>
      <point x="197" y="212" type="line"/>
      <point x="195" y="210" type="line"/>
      <point x="195" y="208" type="line"/>
      <point x="194" y="207" type="line"/>
      <point x="193" y="207" type="line"/>
      <point x="193" y="207" type="line"/>
      <point x="192" y="208" type="line"/>
      <point x="190" y="212" type="line"/>
      <point x="188" y="222" type="line"/>
      <point x="186" y="225" type="line"/>
      <point x="182" y="237" type="line"/>
      <point x="180" y="241" type="line"/>
      <point x="176" y="254" type="line"/>
      <point x="173" y="258" type="line"/>
      <point x="169" y="270" type="line"/>
      <point x="166" y="274" type="line"/>
      <point x="162" y="284" type="line"/>
      <point x="159" y="287" type="line"/>
      <point x="156" y="291" type="line"/>
      <point x="151" y="301" type="line"/>
      <point x="149" y="302" type="line"/>
      <point x="144" y="306" type="line"/>
      <point x="140" y="310" type="line"/>
      <point x="136" y="313" type="line"/>
      <point x="132" y="317" type="line"/>
      <point x="128" y="320" type="line"/>
      <point x="124" y="324" type="line"/>
      <point x="121" y="326" type="line"/>
      <point x="119" y="328" type="line"/>
      <point x="117" y="330" type="line"/>
      <point x="115" y="331" type="line"/>
      <point x="114" y="332" type="line"/>
      <point x="113" y="333" type="line"/>
      <point x="113" y="333" type="line"/>
    </contour>
    <contour>
      <point x="193" y="206" type="move"/>
      <point x="193" y="200" type="line"/>
      <point x="193" y="190" type="line"/>
      <point x="193" y="177" type="line"/>
      <point x="193" y="167" type="line"/>
      <point x="193" y="154" type="line"/>
      <point x="193" y="142" type="line"/>
      <point x="193" y="138" type="line"/>
      <point x="193" y="125" type="line"/>
      <point x="193" y="121" type="line"/>
      <point x="193" y="121" type="line"/>
    </contour>
  </outline>
</glyph>
<glyph name="Z" format="1">
  <advance width="268"/>
  <unicode hex="005A"/>
  <outline>
    <contour>
      <point x="173" y="257" type="move"/>
      <point x="189" y="258" type="line"/>
      <point x="207" y="258" type="line"/>
      <point x="227" y="257" type="line"/>
      <point x="241" y="257" type="line"/>
      <point x="261" y="256" type="line"/>
      <point x="267" y="255" type="line"/>
      <point x="288" y="254" type="line"/>
      <point x="292" y="254" type="line"/>
      <point x="307" y="253" type="line"/>
      <point x="311" y="252" type="line"/>
      <point x="317" y="251" type="line"/>
      <point x="322" y="251" type="line"/>
      <point x="325" y="250" type="line"/>
      <point x="327" y="249" type="line"/>
      <point x="327" y="248" type="line"/>
      <point x="327" y="246" type="line"/>
      <point x="329" y="242" type="line"/>
      <point x="326" y="232" type="line"/>
      <point x="323" y="228" type="line"/>
      <point x="309" y="214" type="line"/>
      <point x="303" y="204" type="line"/>
      <point x="289" y="192" type="line"/>
      <point x="282" y="180" type="line"/>
      <point x="266" y="167" type="line"/>
      <point x="253" y="154" type="line"/>
      <point x="246" y="141" type="line"/>
      <point x="236" y="136" type="line"/>
      <point x="228" y="120" type="line"/>
      <point x="217" y="109" type="line"/>
      <point x="215" y="106" type="line"/>
      <point x="210" y="95" type="line"/>
      <point x="207" y="91" type="line"/>
      <point x="203" y="87" type="line"/>
      <point x="201" y="83" type="line"/>
      <point x="199" y="79" type="line"/>
      <point x="198" y="77" type="line"/>
      <point x="198" y="76" type="line"/>
      <point x="198" y="76" type="line"/>
      <point x="210" y="73" type="line"/>
      <point x="216" y="74" type="line"/>
      <point x="234" y="77" type="line"/>
      <point x="248" y="80" type="line"/>
      <point x="263" y="84" type="line"/>
      <point x="269" y="87" type="line"/>
      <point x="286" y="92" type="line"/>
      <point x="290" y="94" type="line"/>
      <point x="304" y="98" type="line"/>
      <point x="309" y="100" type="line"/>
      <point x="314" y="103" type="line"/>
      <point x="320" y="105" type="line"/>
      <point x="320" y="105" type="line"/>
    </contour>
  </outline>
</glyph>
<glyph name="a" format="1">
  <advance width="268"/>
  <unicode hex="0061"/>
  <outline>
    <contour>
      <point x="151" y="185" type="move"/>
      <point x="148" y="188" type="line"/>
      <point x="144" y="192" type="line"/>
      <point x="141" y="196" type="line"/>
      <point x="139" y="199" type="line"/>
      <point x="136" y="204" type="line"/>
      <point x="134" y="208" type="line"/>
      <point x="133" y="212" type="line"/>
      <point x="132" y="216" type="line"/>
      <point x="132" y="220" type="line"/>
      <point x="132" y="230" type="line"/>
      <point x="132" y="233" type="line"/>
      <point x="132" y="236" type="line"/>
      <point x="134" y="241" type="line"/>
      <point x="139" y="250" type="line"/>
      <point x="148" y="255" type="line"/>
      <point x="152" y="258" type="line"/>
      <point x="158" y="262" type="line"/>
      <point x="171" y="267" type="line"/>
      <point x="176" y="270" type="line"/>
      <point x="188" y="274" type="line"/>
      <point x="192" y="275" type="line"/>
      <point x="204" y="277" type="line"/>
      <point x="208" y="277" type="line"/>
      <point x="214" y="277" type="line"/>
      <point x="227" y="275" type="line"/>
      <point x="229" y="273" type="line"/>
      <point x="236" y="264" type="line"/>
      <point x="238" y="261" type="line"/>
      <point x="243" y="251" type="line"/>
      <point x="245" y="248" type="line"/>
      <point x="247" y="237" type="line"/>
      <point x="247" y="233" type="line"/>
      <point x="247" y="220" type="line"/>
      <point x="247" y="210" type="line"/>
      <point x="247" y="200" type="line"/>
      <point x="245" y="189" type="line"/>
      <point x="243" y="179" type="line"/>
      <point x="240" y="169" type="line"/>
      <point x="238" y="158" type="line"/>
      <point x="236" y="148" type="line"/>
      <point x="235" y="137" type="line"/>
      <point x="234" y="127" type="line"/>
      <point x="234" y="117" type="line"/>
      <point x="234" y="107" type="line"/>
      <point x="234" y="97" type="line"/>
      <point x="234" y="88" type="line"/>
      <point x="236" y="83" type="line"/>
      <point x="238" y="75" type="line"/>
      <point x="240" y="71" type="line"/>
      <point x="245" y="62" type="line"/>
      <point x="248" y="59" type="line"/>
      <point x="251" y="55" type="line"/>
      <point x="256" y="52" type="line"/>
      <point x="261" y="49" type="line"/>
      <point x="266" y="48" type="line"/>
      <point x="271" y="48" type="line"/>
      <point x="277" y="48" type="line"/>
      <point x="289" y="49" type="line"/>
      <point x="293" y="51" type="line"/>
      <point x="299" y="60" type="line"/>
      <point x="302" y="62" type="line"/>
      <point x="305" y="66" type="line"/>
      <point x="305" y="66" type="line"/>
    </contour>
    <contour>
      <point x="235" y="128" type="move"/>
      <point x="235" y="129" type="line"/>
      <point x="234" y="131" type="line"/>
      <point x="231" y="134" type="line"/>
      <point x="228" y="137" type="line"/>
      <point x="225" y="138" type="line"/>
      <point x="222" y="141" type="line"/>
      <point x="218" y="142" type="line"/>
      <point x="214" y="144" type="line"/>
      <point x="210" y="145" type="line"/>
      <point x="205" y="146" type="line"/>
      <point x="201" y="146" type="line"/>
      <point x="197" y="146" type="line"/>
      <point x="192" y="146" type="line"/>
      <point x="188" y="146" type="line"/>
      <point x="184" y="146" type="line"/>
      <point x="180" y="146" type="line"/>
      <point x="175" y="144" type="line"/>
      <point x="171" y="142" type="line"/>
      <point x="167" y="139" type="line"/>
      <point x="163" y="136" type="line"/>
      <point x="159" y="132" type="line"/>
      <point x="155" y="128" type="line"/>
      <point x="150" y="118" type="line"/>
      <point x="149" y="116" type="line"/>
      <point x="146" y="107" type="line"/>
      <point x="145" y="104" type="line"/>
      <point x="143" y="94" type="line"/>
      <point x="143" y="93" type="line"/>
      <point x="143" y="84" type="line"/>
      <point x="143" y="81" type="line"/>
      <point x="143" y="76" type="line"/>
      <point x="143" y="67" type="line"/>
      <point x="144" y="65" type="line"/>
      <point x="146" y="61" type="line"/>
      <point x="148" y="57" type="line"/>
      <point x="152" y="48" type="line"/>
      <point x="155" y="46" type="line"/>
      <point x="160" y="43" type="line"/>
      <point x="165" y="39" type="line"/>
      <point x="178" y="35" type="line"/>
      <point x="183" y="33" type="line"/>
      <point x="195" y="29" type="line"/>
      <point x="196" y="29" type="line"/>
      <point x="201" y="28" type="line"/>
      <point x="214" y="26" type="line"/>
      <point x="217" y="26" type="line"/>
      <point x="221" y="26" type="line"/>
      <point x="226" y="26" type="line"/>
      <point x="231" y="27" type="line"/>
      <point x="235" y="28" type="line"/>
      <point x="240" y="30" type="line"/>
      <point x="244" y="32" type="line"/>
      <point x="247" y="34" type="line"/>
      <point x="251" y="37" type="line"/>
      <point x="253" y="39" type="line"/>
      <point x="256" y="41" type="line"/>
      <point x="257" y="43" type="line"/>
      <point x="259" y="45" type="line"/>
      <point x="259" y="47" type="line"/>
      <point x="261" y="49" type="line"/>
      <point x="261" y="50" type="line"/>
      <point x="262" y="51" type="line"/>
      <point x="262" y="51" type="line"/>
      <point x="262" y="52" type="line"/>
      <point x="262" y="53" type="line"/>
      <point x="262" y="53" type="line"/>
      <point x="262" y="53" type="line"/>
    </contour>
  </outline>
</glyph>
<glyph name="b" format="1">
  <advance width="268"/>
  <unicode hex="0062"/>
  <outline>
    <contour>
      <point x="159" y="229" type="move"/>
      <point x="162" y="218" type="line"/>
      <point x="164" y="205" type="line"/>
      <point x="165" y="196" type="line"/>
      <point x="167" y="183" type="line"/>
      <point x="168" y="171" type="line"/>
      <point x="169" y="159" type="line"/>
      <point x="170" y="148" type="line"/>
      <point x="170" y="145" type="line"/>
      <point x="170" y="132" type="line"/>
      <point x="170" y="129" type="line"/>
      <point x="170" y="118" type="line"/>
      <point x="170" y="116" type="line"/>
      <point x="170" y="113" type="line"/>
      <point x="170" y="110" type="line"/>
      <point x="170" y="108" type="line"/>
      <point x="170" y="107" type="line"/>
      <point x="170" y="106" type="line"/>
      <point x="170" y="108" type="line"/>
      <point x="170" y="112" type="line"/>
      <point x="171" y="122" type="line"/>
      <point x="173" y="125" type="line"/>
      <point x="177" y="135" type="line"/>
      <point x="180" y="138" type="line"/>
      <point x="185" y="149" type="line"/>
      <point x="190" y="153" type="line"/>
      <point x="201" y="164" type="line"/>
      <point x="205" y="167" type="line"/>
      <point x="210" y="171" type="line"/>
      <point x="222" y="177" type="line"/>
      <point x="224" y="179" type="line"/>
      <point x="236" y="183" type="line"/>
      <point x="239" y="184" type="line"/>
      <point x="244" y="184" type="line"/>
      <point x="250" y="184" type="line"/>
      <point x="262" y="184" type="line"/>
      <point x="264" y="183" type="line"/>
      <point x="268" y="180" type="line"/>
      <point x="274" y="171" type="line"/>
      <point x="276" y="168" type="line"/>
      <point x="281" y="158" type="line"/>
      <point x="282" y="155" type="line"/>
      <point x="282" y="145" type="line"/>
      <point x="282" y="141" type="line"/>
      <point x="282" y="131" type="line"/>
      <point x="280" y="127" type="line"/>
      <point x="276" y="117" type="line"/>
      <point x="272" y="113" type="line"/>
      <point x="266" y="104" type="line"/>
      <point x="255" y="100" type="line"/>
      <point x="251" y="97" type="line"/>
      <point x="239" y="93" type="line"/>
      <point x="234" y="91" type="line"/>
      <point x="219" y="89" type="line"/>
      <point x="214" y="88" type="line"/>
      <point x="197" y="88" type="line"/>
      <point x="192" y="88" type="line"/>
      <point x="187" y="88" type="line"/>
      <point x="173" y="89" type="line"/>
      <point x="170" y="89" type="line"/>
      <point x="170" y="89" type="line"/>
    </contour>
  </outline>
</glyph>
<glyph name="c" format="1">
  <advance width="268"/>
  <unicode hex="0063"/>
  <outline>
    <contour>
      <point x="235" y="167" type="move"/>
      <point x="231" y="170" type="line"/>
      <point x="228" y="174" type="line"/>
      <point x="223" y="179" type="line"/>
      <point x="218" y="183" type="line"/>
      <point x="214" y="186" type="line"/>
      <point x="210" y="189" type="line"/>
      <point x="198" y="193" type="line"/>
      <point x="197" y="194" type="line"/>
      <point x="193" y="195" type="line"/>
      <point x="188" y="195" type="line"/>
      <point x="183" y="195" type="line"/>
      <point x="177" y="195" type="line"/>
      <point x="172" y="194" type="line"/>
      <point x="167" y="192" type="line"/>
      <point x="161" y="183" type="line"/>
      <point x="159" y="180" type="line"/>
      <point x="156" y="169" type="line"/>
      <point x="155" y="166" type="line"/>
      <point x="154" y="157" type="line"/>
      <point x="153" y="153" type="line"/>
      <point x="153" y="143" type="line"/>
      <point x="153" y="140" type="line"/>
      <point x="153" y="136" type="line"/>
      <point x="153" y="127" type="line"/>
      <point x="153" y="126" type="line"/>
      <point x="153" y="123" type="line"/>
      <point x="155" y="119" type="line"/>
      <point x="158" y="115" type="line"/>
      <point x="163" y="111" type="line"/>
      <point x="175" y="107" type="line"/>
      <point x="179" y="106" type="line"/>
      <point x="192" y="104" type="line"/>
      <point x="193" y="104" type="line"/>
      <point x="199" y="103" type="line"/>
      <point x="211" y="103" type="line"/>
      <point x="213" y="103" type="line"/>
      <point x="217" y="103" type="line"/>
      <point x="222" y="103" type="line"/>
      <point x="225" y="103" type="line"/>
      <point x="228" y="104" type="line"/>
      <point x="230" y="105" type="line"/>
      <point x="232" y="106" type="line"/>
      <point x="233" y="107" type="line"/>
      <point x="235" y="109" type="line"/>
      <point x="236" y="110" type="line"/>
      <point x="236" y="110" type="line"/>
      <point x="236" y="111" type="line"/>
      <point x="236" y="112" type="line"/>
      <point x="236" y="113" type="line"/>
      <point x="236" y="113" type="line"/>
      <point x="236" y="113" type="line"/>
    </contour>
  </outline>
</glyph>
<glyph name="d" format="1">
  <advance width="268"/>
  <unicode hex="0064"/>
  <outline>
    <contour>
      <point x="289" y="126" type="move"/>
      <point x="289" y="135" type="line"/>
      <point x="289" y="138" type="line"/>
      <point x="285" y="142" type="line"/>
      <point x="282" y="150" type="line"/>
      <point x="281" y="152" type="line"/>
      <point x="280" y="156" type="line"/>
      <point x="279" y="160" type="line"/>
      <point x="276" y="163" type="line"/>
      <point x="273" y="167" type="line"/>
      <point x="270" y="170" type="line"/>
      <point x="266" y="172" type="line"/>
      <point x="263" y="172" type="line"/>
      <point x="257" y="172" type="line"/>
      <point x="252" y="172" type="line"/>
      <point x="246" y="173" type="line"/>
      <point x="241" y="172" type="line"/>
      <point x="234" y="169" type="line"/>
      <point x="228" y="166" type="line"/>
      <point x="221" y="157" type="line"/>
      <point x="216" y="153" type="line"/>
      <point x="210" y="145" type="line"/>
      <point x="205" y="141" type="line"/>
      <point x="199" y="132" type="line"/>
      <point x="197" y="130" type="line"/>
      <point x="192" y="122" type="line"/>
      <point x="190" y="119" type="line"/>
      <point x="188" y="115" type="line"/>
      <point x="185" y="106" type="line"/>
      <point x="185" y="103" type="line"/>
      <point x="185" y="99" type="line"/>
      <point x="185" y="89" type="line"/>
      <point x="185" y="86" type="line"/>
      <point x="185" y="83" type="line"/>
      <point x="185" y="80" type="line"/>
      <point x="186" y="76" type="line"/>
      <point x="189" y="72" type="line"/>
      <point x="192" y="68" type="line"/>
      <point x="196" y="65" type="line"/>
      <point x="201" y="62" type="line"/>
      <point x="205" y="61" type="line"/>
      <point x="210" y="61" type="line"/>
      <point x="222" y="61" type="line"/>
      <point x="225" y="60" type="line"/>
      <point x="231" y="62" type="line"/>
      <point x="244" y="66" type="line"/>
      <point x="250" y="74" type="line"/>
      <point x="255" y="78" type="line"/>
      <point x="267" y="87" type="line"/>
      <point x="270" y="90" type="line"/>
      <point x="274" y="93" type="line"/>
      <point x="279" y="103" type="line"/>
      <point x="282" y="106" type="line"/>
      <point x="287" y="114" type="line"/>
      <point x="290" y="118" type="line"/>
      <point x="294" y="122" type="line"/>
      <point x="298" y="134" type="line"/>
      <point x="300" y="137" type="line"/>
      <point x="302" y="146" type="line"/>
      <point x="303" y="150" type="line"/>
      <point x="305" y="161" type="line"/>
      <point x="305" y="165" type="line"/>
      <point x="307" y="178" type="line"/>
      <point x="307" y="182" type="line"/>
      <point x="307" y="195" type="line"/>
      <point x="307" y="199" type="line"/>
      <point x="307" y="212" type="line"/>
      <point x="307" y="216" type="line"/>
      <point x="307" y="225" type="line"/>
      <point x="307" y="229" type="line"/>
      <point x="307" y="240" type="line"/>
      <point x="307" y="243" type="line"/>
      <point x="307" y="247" type="line"/>
      <point x="307" y="256" type="line"/>
      <point x="307" y="257" type="line"/>
      <point x="307" y="261" type="line"/>
      <point x="307" y="263" type="line"/>
      <point x="306" y="266" type="line"/>
      <point x="306" y="267" type="line"/>
      <point x="305" y="268" type="line"/>
      <point x="305" y="269" type="line"/>
      <point x="304" y="269" type="line"/>
      <point x="303" y="269" type="line"/>
      <point x="303" y="266" type="line"/>
      <point x="299" y="257" type="line"/>
      <point x="299" y="254" type="line"/>
      <point x="298" y="244" type="line"/>
      <point x="298" y="241" type="line"/>
      <point x="296" y="228" type="line"/>
      <point x="296" y="219" type="line"/>
      <point x="296" y="210" type="line"/>
      <point x="296" y="199" type="line"/>
      <point x="296" y="189" type="line"/>
      <point x="295" y="179" type="line"/>
      <point x="295" y="170" type="line"/>
      <point x="295" y="161" type="line"/>
      <point x="295" y="158" type="line"/>
      <point x="295" y="148" type="line"/>
      <point x="295" y="144" type="line"/>
      <point x="295" y="134" type="line"/>
      <point x="295" y="131" type="line"/>
      <point x="295" y="126" type="line"/>
      <point x="296" y="117" type="line"/>
      <point x="296" y="115" type="line"/>
      <point x="297" y="111" type="line"/>
      <point x="298" y="108" type="line"/>
      <point x="299" y="104" type="line"/>
      <point x="300" y="101" type="line"/>
      <point x="301" y="98" type="line"/>
      <point x="302" y="95" type="line"/>
      <point x="303" y="92" type="line"/>
      <point x="303" y="91" type="line"/>
      <point x="303" y="89" type="line"/>
      <point x="303" y="88" type="line"/>
      <point x="304" y="87" type="line"/>
      <point x="304" y="87" type="line"/>
      <point x="304" y="86" type="line"/>
      <point x="304" y="86" type="line"/>
    </contour>
  </outline>
</glyph>
<glyph name="e" format="1">
  <advance width="268"/>
  <unicode hex="0065"/>
  <outline>
    <contour>
      <point x="159" y="152" type="move"/>
      <point x="175" y="149" type="line"/>
      <point x="181" y="148" type="line"/>
      <point x="200" y="146" type="line"/>
      <point x="214" y="145" type="line"/>
      <point x="219" y="145" type="line"/>
      <point x="238" y="145" type="line"/>
      <point x="250" y="146" type="line"/>
      <point x="254" y="146" type="line"/>
      <point x="267" y="148" type="line"/>
      <point x="271" y="150" type="line"/>
      <point x="276" y="153" type="line"/>
      <point x="281" y="155" type="line"/>
      <point x="286" y="158" type="line"/>
      <point x="288" y="160" type="line"/>
      <point x="290" y="163" type="line"/>
      <point x="291" y="165" type="line"/>
      <point x="291" y="167" type="line"/>
      <point x="291" y="170" type="line"/>
      <point x="292" y="173" type="line"/>
      <point x="290" y="176" type="line"/>
      <point x="287" y="179" type="line"/>
      <point x="283" y="181" type="line"/>
      <point x="272" y="183" type="line"/>
      <point x="268" y="184" type="line"/>
      <point x="262" y="185" type="line"/>
      <point x="248" y="185" type="line"/>
      <point x="244" y="185" type="line"/>
      <point x="231" y="186" type="line"/>
      <point x="227" y="185" type="line"/>
      <point x="214" y="182" type="line"/>
      <point x="209" y="179" type="line"/>
      <point x="202" y="171" type="line"/>
      <point x="191" y="166" type="line"/>
      <point x="186" y="159" type="line"/>
      <point x="184" y="158" type="line"/>
      <point x="179" y="154" type="line"/>
      <point x="174" y="144" type="line"/>
      <point x="172" y="141" type="line"/>
      <point x="169" y="138" type="line"/>
      <point x="166" y="126" type="line"/>
      <point x="165" y="123" type="line"/>
      <point x="165" y="115" type="line"/>
      <point x="165" y="112" type="line"/>
      <point x="165" y="103" type="line"/>
      <point x="167" y="100" type="line"/>
      <point x="171" y="91" type="line"/>
      <point x="174" y="88" type="line"/>
      <point x="185" y="83" type="line"/>
      <point x="193" y="74" type="line"/>
      <point x="208" y="71" type="line"/>
      <point x="220" y="69" type="line"/>
      <point x="224" y="68" type="line"/>
      <point x="240" y="67" type="line"/>
      <point x="246" y="67" type="line"/>
      <point x="252" y="67" type="line"/>
      <point x="267" y="67" type="line"/>
      <point x="271" y="67" type="line"/>
      <point x="276" y="67" type="line"/>
      <point x="282" y="68" type="line"/>
      <point x="288" y="70" type="line"/>
      <point x="292" y="72" type="line"/>
      <point x="296" y="74" type="line"/>
      <point x="296" y="74" type="line"/>
    </contour>
  </outline>
</glyph>
<glyph name="f" format="1">
  <advance width="268"/>
  <unicode hex="0066"/>
  <outline>
    <contour>
      <point x="314" y="177" type="move"/>
      <point x="315" y="187" type="line"/>
      <point x="315" y="191" type="line"/>
      <point x="317" y="204" type="line"/>
      <point x="318" y="214" type="line"/>
      <point x="319" y="224" type="line"/>
      <point x="319" y="234" type="line"/>
      <point x="319" y="243" type="line"/>
      <point x="319" y="253" type="line"/>
      <point x="318" y="257" type="line"/>
      <point x="317" y="269" type="line"/>
      <point x="315" y="273" type="line"/>
      <point x="312" y="276" type="line"/>
      <point x="309" y="280" type="line"/>
      <point x="304" y="284" type="line"/>
      <point x="300" y="287" type="line"/>
      <point x="296" y="290" type="line"/>
      <point x="291" y="291" type="line"/>
      <point x="286" y="291" type="line"/>
      <point x="274" y="291" type="line"/>
      <point x="273" y="292" type="line"/>
      <point x="269" y="291" type="line"/>
      <point x="263" y="288" type="line"/>
      <point x="257" y="280" type="line"/>
      <point x="254" y="276" type="line"/>
      <point x="250" y="265" type="line"/>
      <point x="248" y="255" type="line"/>
      <point x="246" y="241" type="line"/>
      <point x="246" y="228" type="line"/>
      <point x="246" y="215" type="line"/>
      <point x="246" y="201" type="line"/>
      <point x="246" y="187" type="line"/>
      <point x="249" y="178" type="line"/>
      <point x="253" y="159" type="line"/>
      <point x="255" y="149" type="line"/>
      <point x="259" y="136" type="line"/>
      <point x="262" y="123" type="line"/>
      <point x="263" y="112" type="line"/>
      <point x="264" y="109" type="line"/>
      <point x="266" y="97" type="line"/>
      <point x="266" y="94" type="line"/>
      <point x="268" y="84" type="line"/>
      <point x="268" y="81" type="line"/>
      <point x="269" y="78" type="line"/>
      <point x="269" y="76" type="line"/>
      <point x="269" y="76" type="line"/>
    </contour>
    <contour>
      <point x="288" y="146" type="move"/>
      <point x="284" y="146" type="line"/>
      <point x="268" y="146" type="line"/>
      <point x="264" y="146" type="line"/>
      <point x="249" y="146" type="line"/>
      <point x="243" y="146" type="line"/>
      <point x="227" y="146" type="line"/>
      <point x="222" y="146" type="line"/>
      <point x="216" y="148" type="line"/>
      <point x="203" y="149" type="line"/>
      <point x="200" y="149" type="line"/>
      <point x="195" y="149" type="line"/>
      <point x="195" y="149" type="line"/>
    </contour>
  </outline>
</glyph>
<glyph name="g" format="1">
  <advance width="268"/>
  <unicode hex="0067"/>
  <outline>
    <contour>
      <point x="265" y="174" type="move"/>
      <point x="267" y="185" type="line"/>
      <point x="267" y="186" type="line"/>
      <point x="268" y="190" type="line"/>
      <point x="268" y="200" type="line"/>
      <point x="268" y="204" type="line"/>
      <point x="268" y="208" type="line"/>
      <point x="268" y="218" type="line"/>
      <point x="268" y="220" type="line"/>
      <point x="268" y="224" type="line"/>
      <point x="268" y="229" type="line"/>
      <point x="267" y="233" type="line"/>
      <point x="266" y="237" type="line"/>
      <point x="264" y="241" type="line"/>
      <point x="262" y="244" type="line"/>
      <point x="259" y="247" type="line"/>
      <point x="257" y="248" type="line"/>
      <point x="254" y="250" type="line"/>
      <point x="250" y="251" type="line"/>
      <point x="246" y="252" type="line"/>
      <point x="242" y="253" type="line"/>
      <point x="237" y="253" type="line"/>
      <point x="232" y="253" type="line"/>
      <point x="227" y="253" type="line"/>
      <point x="222" y="254" type="line"/>
      <point x="210" y="253" type="line"/>
      <point x="207" y="252" type="line"/>
      <point x="203" y="249" type="line"/>
      <point x="198" y="245" type="line"/>
      <point x="192" y="236" type="line"/>
      <point x="188" y="233" type="line"/>
      <point x="186" y="230" type="line"/>
      <point x="182" y="221" type="line"/>
      <point x="180" y="218" type="line"/>
      <point x="178" y="209" type="line"/>
      <point x="177" y="206" type="line"/>
      <point x="175" y="197" type="line"/>
      <point x="175" y="194" type="line"/>
      <point x="175" y="186" type="line"/>
      <point x="175" y="183" type="line"/>
      <point x="175" y="179" type="line"/>
      <point x="175" y="175" type="line"/>
      <point x="177" y="171" type="line"/>
      <point x="180" y="167" type="line"/>
      <point x="183" y="163" type="line"/>
      <point x="186" y="161" type="line"/>
      <point x="190" y="159" type="line"/>
      <point x="195" y="157" type="line"/>
      <point x="200" y="157" type="line"/>
      <point x="206" y="157" type="line"/>
      <point x="212" y="158" type="line"/>
      <point x="224" y="160" type="line"/>
      <point x="228" y="162" type="line"/>
      <point x="233" y="166" type="line"/>
      <point x="239" y="170" type="line"/>
      <point x="243" y="174" type="line"/>
      <point x="248" y="178" type="line"/>
      <point x="254" y="186" type="line"/>
      <point x="257" y="189" type="line"/>
      <point x="261" y="192" type="line"/>
      <point x="264" y="195" type="line"/>
      <point x="266" y="197" type="line"/>
      <point x="267" y="200" type="line"/>
      <point x="269" y="202" type="line"/>
      <point x="269" y="203" type="line"/>
      <point x="269" y="204" type="line"/>
      <point x="269" y="205" type="line"/>
      <point x="269" y="205" type="line"/>
      <point x="269" y="205" type="line"/>
      <point x="269" y="203" type="line"/>
      <point x="269" y="194" type="line"/>
      <point x="269" y="191" type="line"/>
      <point x="266" y="176" type="line"/>
      <point x="266" y="173" type="line"/>
      <point x="269" y="158" type="line"/>
      <point x="272" y="146" type="line"/>
      <point x="275" y="134" type="line"/>
      <point x="278" y="122" type="line"/>
      <point x="280" y="110" type="line"/>
      <point x="281" y="99" type="line"/>
      <point x="282" y="88" type="line"/>
      <point x="283" y="77" type="line"/>
      <point x="283" y="68" type="line"/>
      <point x="283" y="64" type="line"/>
      <point x="283" y="53" type="line"/>
      <point x="281" y="49" type="line"/>
      <point x="277" y="45" type="line"/>
      <point x="272" y="41" type="line"/>
      <point x="267" y="37" type="line"/>
      <point x="256" y="34" type="line"/>
      <point x="252" y="33" type="line"/>
      <point x="248" y="33" type="line"/>
      <point x="235" y="33" type="line"/>
      <point x="231" y="33" type="line"/>
      <point x="227" y="32" type="line"/>
      <point x="222" y="33" type="line"/>
      <point x="217" y="36" type="line"/>
      <point x="211" y="39" type="line"/>
      <point x="206" y="42" type="line"/>
      <point x="202" y="45" type="line"/>
      <point x="198" y="48" type="line"/>
      <point x="198" y="48" type="line"/>
    </contour>
  </outline>
</glyph>
<glyph name="h" format="1">
  <advance width="268"/>
  <unicode hex="0068"/>
  <outline>
    <contour>
      <point x="177" y="263" type="move"/>
      <point x="181" y="252" type="line"/>
      <point x="184" y="242" type="line"/>
      <point x="187" y="232" type="line"/>
      <point x="191" y="221" type="line"/>
      <point x="194" y="209" type="line"/>
      <point x="197" y="197" type="line"/>
      <point x="200" y="184" type="line"/>
      <point x="202" y="172" type="line"/>
      <point x="205" y="161" type="line"/>
      <point x="207" y="150" type="line"/>
      <point x="208" y="140" type="line"/>
      <point x="209" y="131" type="line"/>
      <point x="210" y="128" type="line"/>
      <point x="212" y="118" type="line"/>
      <point x="212" y="115" type="line"/>
      <point x="214" y="104" type="line"/>
      <point x="214" y="101" type="line"/>
      <point x="215" y="97" type="line"/>
      <point x="215" y="88" type="line"/>
      <point x="215" y="87" type="line"/>
      <point x="216" y="84" type="line"/>
      <point x="216" y="81" type="line"/>
      <point x="216" y="78" type="line"/>
      <point x="216" y="77" type="line"/>
      <point x="216" y="76" type="line"/>
      <point x="216" y="75" type="line"/>
      <point x="216" y="75" type="line"/>
      <point x="216" y="77" type="line"/>
      <point x="217" y="81" type="line"/>
      <point x="217" y="85" type="line"/>
      <point x="219" y="95" type="line"/>
      <point x="220" y="98" type="line"/>
      <point x="221" y="108" type="line"/>
      <point x="222" y="112" type="line"/>
      <point x="224" y="122" type="line"/>
      <point x="225" y="125" type="line"/>
      <point x="227" y="129" type="line"/>
      <point x="230" y="139" type="line"/>
      <point x="232" y="142" type="line"/>
      <point x="235" y="146" type="line"/>
      <point x="238" y="151" type="line"/>
      <point x="241" y="155" type="line"/>
      <point x="245" y="158" type="line"/>
      <point x="248" y="162" type="line"/>
      <point x="251" y="164" type="line"/>
      <point x="254" y="166" type="line"/>
      <point x="258" y="167" type="line"/>
      <point x="261" y="167" type="line"/>
      <point x="265" y="167" type="line"/>
      <point x="271" y="167" type="line"/>
      <point x="276" y="167" type="line"/>
      <point x="281" y="166" type="line"/>
      <point x="287" y="163" type="line"/>
      <point x="293" y="155" type="line"/>
      <point x="297" y="152" type="line"/>
      <point x="302" y="143" type="line"/>
      <point x="305" y="139" type="line"/>
      <point x="308" y="135" type="line"/>
      <point x="312" y="122" type="line"/>
      <point x="313" y="120" type="line"/>
      <point x="314" y="111" type="line"/>
      <point x="315" y="107" type="line"/>
      <point x="315" y="98" type="line"/>
      <point x="315" y="95" type="line"/>
      <point x="315" y="86" type="line"/>
      <point x="315" y="83" type="line"/>
      <point x="315" y="79" type="line"/>
      <point x="315" y="70" type="line"/>
      <point x="315" y="68" type="line"/>
      <point x="315" y="65" type="line"/>
      <point x="315" y="62" type="line"/>
      <point x="315" y="59" type="line"/>
      <point x="315" y="58" type="line"/>
      <point x="315" y="56" type="line"/>
      <point x="315" y="56" type="line"/>
    </contour>
  </outline>
</glyph>
<glyph name="i" format="1">
  <advance width="268"/>
  <unicode hex="0069"/>
  <outline>
    <contour>
      <point x="222" y="268" type="move"/>
      <point x="226" y="268" type="line"/>
      <point x="230" y="268" type="line"/>
      <point x="234" y="268" type="line"/>
      <point x="237" y="268" type="line"/>
      <point x="241" y="269" type="line"/>
      <point x="244" y="269" type="line"/>
      <point x="246" y="268" type="line"/>
      <point x="248" y="267" type="line"/>
      <point x="250" y="265" type="line"/>
      <point x="252" y="263" type="line"/>
      <point x="253" y="261" type="line"/>
      <point x="253" y="260" type="line"/>
      <point x="253" y="257" type="line"/>
      <point x="253" y="255" type="line"/>
      <point x="253" y="253" type="line"/>
      <point x="253" y="250" type="line"/>
      <point x="253" y="248" type="line"/>
      <point x="254" y="245" type="line"/>
      <point x="254" y="242" type="line"/>
      <point x="252" y="239" type="line"/>
      <point x="250" y="236" type="line"/>
      <point x="248" y="234" type="line"/>
      <point x="245" y="231" type="line"/>
      <point x="243" y="230" type="line"/>
      <point x="240" y="229" type="line"/>
      <point x="237" y="227" type="line"/>
      <point x="234" y="226" type="line"/>
      <point x="231" y="226" type="line"/>
      <point x="229" y="226" type="line"/>
      <point x="225" y="226" type="line"/>
      <point x="224" y="226" type="line"/>
      <point x="220" y="226" type="line"/>
      <point x="219" y="225" type="line"/>
      <point x="216" y="225" type="line"/>
      <point x="214" y="226" type="line"/>
      <point x="212" y="226" type="line"/>
      <point x="211" y="227" type="line"/>
      <point x="209" y="229" type="line"/>
      <point x="207" y="231" type="line"/>
      <point x="207" y="233" type="line"/>
      <point x="207" y="236" type="line"/>
      <point x="207" y="238" type="line"/>
      <point x="207" y="241" type="line"/>
      <point x="207" y="243" type="line"/>
      <point x="207" y="246" type="line"/>
      <point x="207" y="249" type="line"/>
      <point x="206" y="251" type="line"/>
      <point x="206" y="254" type="line"/>
      <point x="207" y="256" type="line"/>
      <point x="208" y="257" type="line"/>
      <point x="209" y="260" type="line"/>
      <point x="211" y="262" type="line"/>
      <point x="213" y="263" type="line"/>
      <point x="215" y="265" type="line"/>
      <point x="218" y="266" type="line"/>
      <point x="219" y="267" type="line"/>
      <point x="222" y="269" type="line"/>
      <point x="224" y="269" type="line"/>
      <point x="225" y="270" type="line"/>
      <point x="226" y="271" type="line"/>
      <point x="228" y="272" type="line"/>
      <point x="229" y="273" type="line"/>
      <point x="230" y="273" type="line"/>
      <point x="231" y="273" type="line"/>
      <point x="231" y="273" type="line"/>
    </contour>
    <contour>
      <point x="229" y="210" type="move"/>
      <point x="229" y="200" type="line"/>
      <point x="229" y="196" type="line"/>
      <point x="229" y="180" type="line"/>
      <point x="230" y="168" type="line"/>
      <point x="231" y="160" type="line"/>
      <point x="234" y="147" type="line"/>
      <point x="237" y="135" type="line"/>
      <point x="239" y="123" type="line"/>
      <point x="242" y="112" type="line"/>
      <point x="243" y="109" type="line"/>
      <point x="245" y="97" type="line"/>
      <point x="246" y="93" type="line"/>
      <point x="246" y="90" type="line"/>
      <point x="248" y="79" type="line"/>
      <point x="248" y="79" type="line"/>
    </contour>
  </outline>
</glyph>
<glyph name="j" format="1">
  <advance width="268"/>
  <unicode hex="006A"/>
  <outline>
    <contour>
      <point x="215" y="242" type="move"/>
      <point x="218" y="243" type="line"/>
      <point x="220" y="244" type="line"/>
      <point x="223" y="244" type="line"/>
      <point x="226" y="244" type="line"/>
      <point x="227" y="244" type="line"/>
      <point x="231" y="244" type="line"/>
      <point x="232" y="244" type="line"/>
      <point x="235" y="244" type="line"/>
      <point x="237" y="243" type="line"/>
      <point x="239" y="242" type="line"/>
      <point x="241" y="240" type="line"/>
      <point x="243" y="238" type="line"/>
      <point x="244" y="236" type="line"/>
      <point x="244" y="234" type="line"/>
      <point x="244" y="231" type="line"/>
      <point x="244" y="229" type="line"/>
      <point x="244" y="226" type="line"/>
      <point x="244" y="223" type="line"/>
      <point x="244" y="220" type="line"/>
      <point x="244" y="217" type="line"/>
      <point x="244" y="214" type="line"/>
      <point x="244" y="211" type="line"/>
      <point x="244" y="208" type="line"/>
      <point x="244" y="206" type="line"/>
      <point x="243" y="203" type="line"/>
      <point x="241" y="200" type="line"/>
      <point x="240" y="199" type="line"/>
      <point x="237" y="197" type="line"/>
      <point x="236" y="196" type="line"/>
      <point x="233" y="195" type="line"/>
      <point x="232" y="194" type="line"/>
      <point x="232" y="194" type="line"/>
      <point x="229" y="194" type="line"/>
      <point x="227" y="194" type="line"/>
      <point x="226" y="194" type="line"/>
      <point x="224" y="193" type="line"/>
      <point x="224" y="193" type="line"/>
      <point x="222" y="194" type="line"/>
      <point x="220" y="195" type="line"/>
      <point x="218" y="197" type="line"/>
      <point x="218" y="198" type="line"/>
      <point x="218" y="200" type="line"/>
      <point x="218" y="203" type="line"/>
      <point x="218" y="205" type="line"/>
      <point x="218" y="206" type="line"/>
      <point x="218" y="209" type="line"/>
      <point x="218" y="211" type="line"/>
      <point x="218" y="212" type="line"/>
      <point x="218" y="215" type="line"/>
      <point x="218" y="216" type="line"/>
      <point x="217" y="218" type="line"/>
      <point x="217" y="219" type="line"/>
      <point x="218" y="221" type="line"/>
      <point x="218" y="223" type="line"/>
      <point x="219" y="224" type="line"/>
      <point x="221" y="226" type="line"/>
      <point x="222" y="228" type="line"/>
      <point x="223" y="229" type="line"/>
      <point x="224" y="230" type="line"/>
      <point x="225" y="231" type="line"/>
      <point x="226" y="232" type="line"/>
      <point x="227" y="232" type="line"/>
      <point x="228" y="233" type="line"/>
      <point x="228" y="233" type="line"/>
      <point x="228" y="233" type="line"/>
    </contour>
    <contour>
      <point x="228" y="168" type="move"/>
      <point x="230" y="157" type="line"/>
      <point x="231" y="153" type="line"/>
      <point x="233" y="140" type="line"/>
      <point x="234" y="131" type="line"/>
      <point x="236" y="121" type="line"/>
      <point x="237" y="110" type="line"/>
      <point x="238" y="100" type="line"/>
      <point x="239" y="89" type="line"/>
      <point x="239" y="79" type="line"/>
      <point x="239" y="76" type="line"/>
      <point x="239" y="65" type="line"/>
      <point x="239" y="61" type="line"/>
      <point x="238" y="52" type="line"/>
      <point x="237" y="49" type="line"/>
      <point x="235" y="46" type="line"/>
      <point x="232" y="42" type="line"/>
      <point x="228" y="39" type="line"/>
      <point x="224" y="37" type="line"/>
      <point x="220" y="37" type="line"/>
      <point x="207" y="37" type="line"/>
      <point x="203" y="37" type="line"/>
      <point x="198" y="37" type="line"/>
      <point x="185" y="40" type="line"/>
      <point x="180" y="42" type="line"/>
      <point x="173" y="51" type="line"/>
      <point x="168" y="55" type="line"/>
      <point x="161" y="65" type="line"/>
      <point x="156" y="69" type="line"/>
      <point x="150" y="79" type="line"/>
      <point x="148" y="81" type="line"/>
      <point x="143" y="90" type="line"/>
      <point x="142" y="93" type="line"/>
      <point x="140" y="102" type="line"/>
      <point x="139" y="105" type="line"/>
      <point x="138" y="109" type="line"/>
      <point x="138" y="113" type="line"/>
      <point x="138" y="116" type="line"/>
      <point x="138" y="119" type="line"/>
      <point x="138" y="122" type="line"/>
      <point x="138" y="122" type="line"/>
      <point x="138" y="123" type="line"/>
      <point x="138" y="123" type="line"/>
    </contour>
  </outline>
</glyph>
<glyph name="k" format="1">
  <advance width="268"/>
  <unicode hex="006B"/>
  <outline>
    <contour>
      <point x="139" y="253" type="move"/>
      <point x="140" y="244" type="line"/>
      <point x="141" y="234" type="line"/>
      <point x="141" y="222" type="line"/>
      <point x="141" y="211" type="line"/>
      <point x="141" y="198" type="line"/>
      <point x="141" y="185" type="line"/>
      <point x="141" y="173" type="line"/>
      <point x="141" y="160" type="line"/>
      <point x="141" y="148" type="line"/>
      <point x="140" y="137" type="line"/>
      <point x="137" y="126" type="line"/>
      <point x="136" y="117" type="line"/>
      <point x="135" y="114" type="line"/>
      <point x="133" y="103" type="line"/>
      <point x="132" y="100" type="line"/>
      <point x="131" y="91" type="line"/>
      <point x="130" y="89" type="line"/>
      <point x="130" y="86" type="line"/>
      <point x="130" y="86" type="line"/>
    </contour>
    <contour>
      <point x="189" y="187" type="move"/>
      <point x="185" y="184" type="line"/>
      <point x="179" y="176" type="line"/>
      <point x="175" y="172" type="line"/>
      <point x="162" y="162" type="line"/>
      <point x="158" y="158" type="line"/>
      <point x="153" y="149" type="line"/>
      <point x="150" y="147" type="line"/>
      <point x="145" y="143" type="line"/>
      <point x="141" y="139" type="line"/>
      <point x="137" y="135" type="line"/>
      <point x="133" y="132" type="line"/>
      <point x="131" y="130" type="line"/>
      <point x="131" y="130" type="line"/>
    </contour>
    <contour>
      <point x="161" y="156" type="move"/>
      <point x="163" y="150" type="line"/>
      <point x="165" y="146" type="line"/>
      <point x="168" y="142" type="line"/>
      <point x="173" y="130" type="line"/>
      <point x="174" y="128" type="line"/>
      <point x="179" y="120" type="line"/>
      <point x="181" y="117" type="line"/>
      <point x="185" y="113" type="line"/>
      <point x="189" y="110" type="line"/>
      <point x="193" y="106" type="line"/>
      <point x="197" y="103" type="line"/>
      <point x="201" y="100" type="line"/>
      <point x="204" y="98" type="line"/>
      <point x="204" y="98" type="line"/>
    </contour>
  </outline>
</glyph>
<glyph name="l" format="1">
  <advance width="268"/>
  <unicode hex="006C"/>
  <outline>
    <contour>
      <point x="210" y="67" type="move"/>
      <point x="210" y="70" type="line"/>
      <point x="210" y="80" type="line"/>
      <point x="210" y="90" type="line"/>
      <point x="210" y="100" type="line"/>
      <point x="210" y="111" type="line"/>
      <point x="210" y="127" type="line"/>
      <point x="210" y="140" type="line"/>
      <point x="210" y="149" type="line"/>
      <point x="210" y="162" type="line"/>
      <point x="210" y="174" type="line"/>
      <point x="210" y="187" type="line"/>
      <point x="210" y="199" type="line"/>
      <point x="210" y="210" type="line"/>
      <point x="210" y="221" type="line"/>
      <point x="210" y="232" type="line"/>
      <point x="210" y="242" type="line"/>
      <point x="210" y="244" type="line"/>
      <point x="210" y="255" type="line"/>
      <point x="210" y="259" type="line"/>
      <point x="210" y="269" type="line"/>
      <point x="210" y="272" type="line"/>
      <point x="210" y="275" type="line"/>
      <point x="210" y="279" type="line"/>
      <point x="210" y="282" type="line"/>
      <point x="210" y="285" type="line"/>
      <point x="210" y="286" type="line"/>
      <point x="210" y="287" type="line"/>
      <point x="210" y="287" type="line"/>
      <point x="210" y="288" type="line"/>
      <point x="210" y="288" type="line"/>
    </contour>
  </outline>
</glyph>
<glyph name="m" format="1">
  <advance width="268"/>
  <unicode hex="006D"/>
  <outline>
    <contour>
      <point x="127" y="196" type="move"/>
      <point x="128" y="185" type="line"/>
      <point x="129" y="176" type="line"/>
      <point x="130" y="167" type="line"/>
      <point x="131" y="157" type="line"/>
      <point x="133" y="147" type="line"/>
      <point x="134" y="138" type="line"/>
      <point x="135" y="135" type="line"/>
      <point x="136" y="125" type="line"/>
      <point x="137" y="121" type="line"/>
      <point x="138" y="112" type="line"/>
      <point x="138" y="109" type="line"/>
      <point x="138" y="106" type="line"/>
      <point x="138" y="103" type="line"/>
      <point x="138" y="101" type="line"/>
      <point x="138" y="100" type="line"/>
      <point x="138" y="99" type="line"/>
      <point x="138" y="98" type="line"/>
      <point x="138" y="100" type="line"/>
      <point x="138" y="104" type="line"/>
      <point x="139" y="115" type="line"/>
      <point x="139" y="118" type="line"/>
      <point x="141" y="130" type="line"/>
      <point x="142" y="140" type="line"/>
      <point x="144" y="149" type="line"/>
      <point x="146" y="158" type="line"/>
      <point x="147" y="161" type="line"/>
      <point x="150" y="172" type="line"/>
      <point x="152" y="176" type="line"/>
      <point x="156" y="185" type="line"/>
      <point x="158" y="188" type="line"/>
      <point x="160" y="191" type="line"/>
      <point x="164" y="195" type="line"/>
      <point x="168" y="198" type="line"/>
      <point x="172" y="201" type="line"/>
      <point x="176" y="203" type="line"/>
      <point x="182" y="204" type="line"/>
      <point x="194" y="204" type="line"/>
      <point x="198" y="204" type="line"/>
      <point x="202" y="204" type="line"/>
      <point x="207" y="204" type="line"/>
      <point x="213" y="204" type="line"/>
      <point x="219" y="204" type="line"/>
      <point x="224" y="203" type="line"/>
      <point x="229" y="201" type="line"/>
      <point x="233" y="198" type="line"/>
      <point x="237" y="195" type="line"/>
      <point x="242" y="186" type="line"/>
      <point x="243" y="183" type="line"/>
      <point x="245" y="174" type="line"/>
      <point x="245" y="170" type="line"/>
      <point x="245" y="160" type="line"/>
      <point x="245" y="156" type="line"/>
      <point x="245" y="152" type="line"/>
      <point x="245" y="142" type="line"/>
      <point x="245" y="139" type="line"/>
      <point x="245" y="135" type="line"/>
      <point x="245" y="131" type="line"/>
      <point x="244" y="127" type="line"/>
      <point x="243" y="124" type="line"/>
      <point x="242" y="121" type="line"/>
      <point x="241" y="120" type="line"/>
      <point x="240" y="119" type="line"/>
      <point x="240" y="118" type="line"/>
      <point x="240" y="119" type="line"/>
      <point x="240" y="128" type="line"/>
      <point x="239" y="132" type="line"/>
      <point x="240" y="143" type="line"/>
      <point x="242" y="147" type="line"/>
      <point x="244" y="155" type="line"/>
      <point x="246" y="159" type="line"/>
      <point x="251" y="169" type="line"/>
      <point x="253" y="172" type="line"/>
      <point x="256" y="177" type="line"/>
      <point x="260" y="180" type="line"/>
      <point x="263" y="184" type="line"/>
      <point x="267" y="187" type="line"/>
      <point x="270" y="189" type="line"/>
      <point x="274" y="190" type="line"/>
      <point x="278" y="192" type="line"/>
      <point x="283" y="192" type="line"/>
      <point x="288" y="192" type="line"/>
      <point x="293" y="192" type="line"/>
      <point x="299" y="190" type="line"/>
      <point x="303" y="188" type="line"/>
      <point x="308" y="186" type="line"/>
      <point x="313" y="182" type="line"/>
      <point x="317" y="179" type="line"/>
      <point x="321" y="175" type="line"/>
      <point x="323" y="172" type="line"/>
      <point x="326" y="167" type="line"/>
      <point x="328" y="159" type="line"/>
      <point x="329" y="156" type="line"/>
      <point x="330" y="152" type="line"/>
      <point x="332" y="143" type="line"/>
      <point x="332" y="140" type="line"/>
      <point x="332" y="137" type="line"/>
      <point x="332" y="127" type="line"/>
      <point x="332" y="125" type="line"/>
      <point x="332" y="122" type="line"/>
      <point x="332" y="118" type="line"/>
      <point x="332" y="114" type="line"/>
      <point x="331" y="111" type="line"/>
      <point x="331" y="107" type="line"/>
      <point x="330" y="104" type="line"/>
      <point x="329" y="101" type="line"/>
      <point x="328" y="98" type="line"/>
      <point x="328" y="95" type="line"/>
      <point x="327" y="93" type="line"/>
      <point x="326" y="92" type="line"/>
      <point x="325" y="90" type="line"/>
      <point x="325" y="89" type="line"/>
      <point x="325" y="88" type="line"/>
      <point x="325" y="88" type="line"/>
      <point x="325" y="88" type="line"/>
    </contour>
  </outline>
</glyph>
<glyph name="n" format="1">
  <advance width="268"/>
  <unicode hex="006E"/>
  <outline>
    <contour>
      <point x="170" y="220" type="move"/>
      <point x="174" y="211" type="line"/>
      <point x="176" y="207" type="line"/>
      <point x="180" y="195" type="line"/>
      <point x="183" y="186" type="line"/>
      <point x="187" y="177" type="line"/>
      <point x="190" y="167" type="line"/>
      <point x="193" y="157" type="line"/>
      <point x="196" y="148" type="line"/>
      <point x="198" y="138" type="line"/>
      <point x="199" y="136" type="line"/>
      <point x="202" y="125" type="line"/>
      <point x="203" y="121" type="line"/>
      <point x="205" y="111" type="line"/>
      <point x="205" y="109" type="line"/>
      <point x="206" y="105" type="line"/>
      <point x="206" y="102" type="line"/>
      <point x="206" y="99" type="line"/>
      <point x="206" y="97" type="line"/>
      <point x="206" y="96" type="line"/>
      <point x="206" y="95" type="line"/>
      <point x="206" y="95" type="line"/>
      <point x="206" y="94" type="line"/>
      <point x="206" y="97" type="line"/>
      <point x="206" y="105" type="line"/>
      <point x="206" y="108" type="line"/>
      <point x="206" y="119" type="line"/>
      <point x="206" y="123" type="line"/>
      <point x="206" y="136" type="line"/>
      <point x="206" y="146" type="line"/>
      <point x="206" y="155" type="line"/>
      <point x="206" y="158" type="line"/>
      <point x="206" y="169" type="line"/>
      <point x="206" y="173" type="line"/>
      <point x="207" y="184" type="line"/>
      <point x="208" y="186" type="line"/>
      <point x="209" y="190" type="line"/>
      <point x="212" y="194" type="line"/>
      <point x="215" y="198" type="line"/>
      <point x="218" y="201" type="line"/>
      <point x="221" y="204" type="line"/>
      <point x="224" y="205" type="line"/>
      <point x="229" y="207" type="line"/>
      <point x="234" y="207" type="line"/>
      <point x="240" y="207" type="line"/>
      <point x="252" y="208" type="line"/>
      <point x="255" y="207" type="line"/>
      <point x="261" y="205" type="line"/>
      <point x="267" y="201" type="line"/>
      <point x="274" y="193" type="line"/>
      <point x="279" y="190" type="line"/>
      <point x="286" y="180" type="line"/>
      <point x="290" y="176" type="line"/>
      <point x="295" y="164" type="line"/>
      <point x="298" y="159" type="line"/>
      <point x="301" y="147" type="line"/>
      <point x="302" y="143" type="line"/>
      <point x="304" y="131" type="line"/>
      <point x="305" y="127" type="line"/>
      <point x="305" y="115" type="line"/>
      <point x="305" y="111" type="line"/>
      <point x="305" y="101" type="line"/>
      <point x="305" y="98" type="line"/>
      <point x="304" y="94" type="line"/>
      <point x="304" y="84" type="line"/>
      <point x="303" y="81" type="line"/>
      <point x="302" y="77" type="line"/>
      <point x="301" y="73" type="line"/>
      <point x="300" y="69" type="line"/>
      <point x="299" y="66" type="line"/>
      <point x="298" y="63" type="line"/>
      <point x="297" y="60" type="line"/>
      <point x="297" y="58" type="line"/>
      <point x="297" y="57" type="line"/>
      <point x="296" y="56" type="line"/>
      <point x="296" y="55" type="line"/>
      <point x="296" y="54" type="line"/>
      <point x="296" y="53" type="line"/>
      <point x="296" y="53" type="line"/>
      <point x="296" y="53" type="line"/>
    </contour>
  </outline>
</glyph>
<glyph name="o" format="1">
  <advance width="268"/>
  <unicode hex="006F"/>
  <outline>
    <contour>
      <point x="142" y="135" type="move"/>
      <point x="142" y="133" type="line"/>
      <point x="142" y="130" type="line"/>
      <point x="142" y="126" type="line"/>
      <point x="142" y="122" type="line"/>
      <point x="142" y="118" type="line"/>
      <point x="144" y="114" type="line"/>
      <point x="147" y="110" type="line"/>
      <point x="151" y="101" type="line"/>
      <point x="153" y="99" type="line"/>
      <point x="157" y="95" type="line"/>
      <point x="162" y="92" type="line"/>
      <point x="167" y="88" type="line"/>
      <point x="173" y="85" type="line"/>
      <point x="184" y="82" type="line"/>
      <point x="188" y="80" type="line"/>
      <point x="192" y="78" type="line"/>
      <point x="197" y="77" type="line"/>
      <point x="210" y="76" type="line"/>
      <point x="211" y="76" type="line"/>
      <point x="215" y="76" type="line"/>
      <point x="220" y="76" type="line"/>
      <point x="226" y="76" type="line"/>
      <point x="231" y="76" type="line"/>
      <point x="236" y="77" type="line"/>
      <point x="242" y="79" type="line"/>
      <point x="247" y="82" type="line"/>
      <point x="251" y="85" type="line"/>
      <point x="256" y="88" type="line"/>
      <point x="260" y="92" type="line"/>
      <point x="263" y="96" type="line"/>
      <point x="266" y="104" type="line"/>
      <point x="268" y="107" type="line"/>
      <point x="271" y="116" type="line"/>
      <point x="272" y="119" type="line"/>
      <point x="274" y="128" type="line"/>
      <point x="274" y="132" type="line"/>
      <point x="275" y="136" type="line"/>
      <point x="275" y="146" type="line"/>
      <point x="275" y="149" type="line"/>
      <point x="275" y="159" type="line"/>
      <point x="275" y="162" type="line"/>
      <point x="275" y="166" type="line"/>
      <point x="275" y="176" type="line"/>
      <point x="275" y="178" type="line"/>
      <point x="275" y="182" type="line"/>
      <point x="273" y="186" type="line"/>
      <point x="271" y="190" type="line"/>
      <point x="269" y="195" type="line"/>
      <point x="266" y="198" type="line"/>
      <point x="263" y="202" type="line"/>
      <point x="260" y="206" type="line"/>
      <point x="257" y="208" type="line"/>
      <point x="254" y="211" type="line"/>
      <point x="249" y="214" type="line"/>
      <point x="245" y="215" type="line"/>
      <point x="241" y="216" type="line"/>
      <point x="237" y="218" type="line"/>
      <point x="232" y="219" type="line"/>
      <point x="227" y="219" type="line"/>
      <point x="222" y="219" type="line"/>
      <point x="217" y="219" type="line"/>
      <point x="213" y="219" type="line"/>
      <point x="208" y="219" type="line"/>
      <point x="204" y="219" type="line"/>
      <point x="201" y="219" type="line"/>
      <point x="197" y="218" type="line"/>
      <point x="193" y="218" type="line"/>
      <point x="189" y="216" type="line"/>
      <point x="185" y="215" type="line"/>
      <point x="182" y="213" type="line"/>
      <point x="178" y="211" type="line"/>
      <point x="175" y="210" type="line"/>
      <point x="172" y="207" type="line"/>
      <point x="170" y="206" type="line"/>
      <point x="167" y="203" type="line"/>
      <point x="165" y="201" type="line"/>
      <point x="162" y="199" type="line"/>
      <point x="160" y="196" type="line"/>
      <point x="158" y="194" type="line"/>
      <point x="156" y="191" type="line"/>
      <point x="155" y="188" type="line"/>
      <point x="153" y="186" type="line"/>
      <point x="152" y="182" type="line"/>
      <point x="151" y="179" type="line"/>
      <point x="150" y="176" type="line"/>
      <point x="149" y="173" type="line"/>
      <point x="148" y="170" type="line"/>
      <point x="148" y="167" type="line"/>
      <point x="147" y="164" type="line"/>
      <point x="146" y="160" type="line"/>
      <point x="146" y="157" type="line"/>
      <point x="145" y="153" type="line"/>
      <point x="144" y="149" type="line"/>
      <point x="144" y="145" type="line"/>
      <point x="144" y="141" type="line"/>
      <point x="143" y="136" type="line"/>
      <point x="143" y="132" type="line"/>
      <point x="143" y="128" type="line"/>
      <point x="143" y="125" type="line"/>
      <point x="143" y="122" type="line"/>
      <point x="143" y="119" type="line"/>
      <point x="142" y="116" type="line"/>
      <point x="142" y="113" type="line"/>
      <point x="142" y="111" type="line"/>
      <point x="142" y="109" type="line"/>
      <point x="142" y="107" type="line"/>
      <point x="142" y="105" type="line"/>
      <point x="142" y="104" type="line"/>
      <point x="142" y="102" type="line"/>
      <point x="142" y="101" type="line"/>
      <point x="142" y="100" type="line"/>
      <point x="142" y="99" type="line"/>
      <point x="142" y="98" type="line"/>
      <point x="142" y="97" type="line"/>
      <point x="142" y="97" type="line"/>
      <point x="142" y="97" type="line"/>
    </contour>
  </outline>
</glyph>
<glyph name="p" format="1">
  <advance width="268"/>
  <unicode hex="0070"/>
  <outline>
    <contour>
      <point x="166" y="219" type="move"/>
      <point x="169" y="207" type="line"/>
      <point x="172" y="198" type="line"/>
      <point x="175" y="188" type="line"/>
      <point x="177" y="177" type="line"/>
      <point x="180" y="166" type="line"/>
      <point x="182" y="155" type="line"/>
      <point x="185" y="144" type="line"/>
      <point x="187" y="132" type="line"/>
      <point x="188" y="121" type="line"/>
      <point x="189" y="110" type="line"/>
      <point x="190" y="100" type="line"/>
      <point x="191" y="97" type="line"/>
      <point x="192" y="85" type="line"/>
      <point x="193" y="81" type="line"/>
      <point x="193" y="71" type="line"/>
      <point x="193" y="68" type="line"/>
      <point x="193" y="64" type="line"/>
      <point x="193" y="61" type="line"/>
      <point x="193" y="58" type="line"/>
      <point x="193" y="56" type="line"/>
      <point x="193" y="55" type="line"/>
      <point x="193" y="54" type="line"/>
      <point x="193" y="53" type="line"/>
      <point x="193" y="55" type="line"/>
      <point x="193" y="66" type="line"/>
      <point x="193" y="77" type="line"/>
      <point x="192" y="81" type="line"/>
      <point x="191" y="95" type="line"/>
      <point x="189" y="107" type="line"/>
      <point x="187" y="119" type="line"/>
      <point x="185" y="131" type="line"/>
      <point x="182" y="143" type="line"/>
      <point x="180" y="155" type="line"/>
      <point x="179" y="166" type="line"/>
      <point x="177" y="177" type="line"/>
      <point x="176" y="187" type="line"/>
      <point x="175" y="189" type="line"/>
      <point x="174" y="201" type="line"/>
      <point x="174" y="204" type="line"/>
      <point x="174" y="215" type="line"/>
      <point x="174" y="218" type="line"/>
      <point x="174" y="222" type="line"/>
      <point x="174" y="227" type="line"/>
      <point x="174" y="231" type="line"/>
      <point x="174" y="235" type="line"/>
      <point x="175" y="238" type="line"/>
      <point x="177" y="241" type="line"/>
      <point x="178" y="243" type="line"/>
      <point x="180" y="245" type="line"/>
      <point x="184" y="248" type="line"/>
      <point x="188" y="249" type="line"/>
      <point x="193" y="251" type="line"/>
      <point x="199" y="252" type="line"/>
      <point x="211" y="252" type="line"/>
      <point x="214" y="252" type="line"/>
      <point x="218" y="252" type="line"/>
      <point x="224" y="252" type="line"/>
      <point x="230" y="252" type="line"/>
      <point x="242" y="252" type="line"/>
      <point x="243" y="252" type="line"/>
      <point x="248" y="252" type="line"/>
      <point x="252" y="252" type="line"/>
      <point x="257" y="250" type="line"/>
      <point x="261" y="248" type="line"/>
      <point x="265" y="246" type="line"/>
      <point x="268" y="243" type="line"/>
      <point x="271" y="239" type="line"/>
      <point x="273" y="236" type="line"/>
      <point x="275" y="225" type="line"/>
      <point x="275" y="222" type="line"/>
      <point x="275" y="212" type="line"/>
      <point x="275" y="209" type="line"/>
      <point x="275" y="198" type="line"/>
      <point x="275" y="195" type="line"/>
      <point x="273" y="190" type="line"/>
      <point x="270" y="180" type="line"/>
      <point x="268" y="177" type="line"/>
      <point x="265" y="173" type="line"/>
      <point x="261" y="169" type="line"/>
      <point x="257" y="166" type="line"/>
      <point x="253" y="163" type="line"/>
      <point x="249" y="161" type="line"/>
      <point x="243" y="159" type="line"/>
      <point x="238" y="158" type="line"/>
      <point x="226" y="157" type="line"/>
      <point x="225" y="157" type="line"/>
      <point x="220" y="157" type="line"/>
      <point x="214" y="157" type="line"/>
      <point x="209" y="157" type="line"/>
      <point x="203" y="157" type="line"/>
      <point x="197" y="157" type="line"/>
      <point x="192" y="158" type="line"/>
      <point x="187" y="159" type="line"/>
      <point x="183" y="160" type="line"/>
      <point x="179" y="162" type="line"/>
      <point x="175" y="163" type="line"/>
      <point x="174" y="163" type="line"/>
      <point x="172" y="164" type="line"/>
      <point x="170" y="165" type="line"/>
      <point x="169" y="166" type="line"/>
      <point x="168" y="166" type="line"/>
      <point x="167" y="167" type="line"/>
      <point x="167" y="167" type="line"/>
    </contour>
  </outline>
</glyph>
<glyph name="q" format="1">
  <advance width="268"/>
  <unicode hex="0071"/>
  <outline>
    <contour>
      <point x="217" y="204" type="move"/>
      <point x="217" y="205" type="line"/>
      <point x="217" y="209" type="line"/>
      <point x="217" y="219" type="line"/>
      <point x="217" y="221" type="line"/>
      <point x="217" y="225" type="line"/>
      <point x="217" y="229" type="line"/>
      <point x="215" y="233" type="line"/>
      <point x="212" y="237" type="line"/>
      <point x="209" y="241" type="line"/>
      <point x="206" y="244" type="line"/>
      <point x="201" y="247" type="line"/>
      <point x="196" y="249" type="line"/>
      <point x="191" y="250" type="line"/>
      <point x="186" y="250" type="line"/>
      <point x="181" y="250" type="line"/>
      <point x="168" y="250" type="line"/>
      <point x="166" y="250" type="line"/>
      <point x="161" y="249" type="line"/>
      <point x="156" y="247" type="line"/>
      <point x="151" y="244" type="line"/>
      <point x="146" y="241" type="line"/>
      <point x="141" y="238" type="line"/>
      <point x="137" y="234" type="line"/>
      <point x="133" y="230" type="line"/>
      <point x="128" y="221" type="line"/>
      <point x="127" y="220" type="line"/>
      <point x="126" y="217" type="line"/>
      <point x="124" y="213" type="line"/>
      <point x="122" y="209" type="line"/>
      <point x="121" y="205" type="line"/>
      <point x="121" y="201" type="line"/>
      <point x="121" y="197" type="line"/>
      <point x="121" y="188" type="line"/>
      <point x="121" y="186" type="line"/>
      <point x="121" y="183" type="line"/>
      <point x="123" y="179" type="line"/>
      <point x="127" y="170" type="line"/>
      <point x="130" y="169" type="line"/>
      <point x="134" y="167" type="line"/>
      <point x="139" y="165" type="line"/>
      <point x="151" y="164" type="line"/>
      <point x="155" y="164" type="line"/>
      <point x="160" y="164" type="line"/>
      <point x="165" y="164" type="line"/>
      <point x="171" y="165" type="line"/>
      <point x="177" y="167" type="line"/>
      <point x="182" y="170" type="line"/>
      <point x="188" y="173" type="line"/>
      <point x="193" y="176" type="line"/>
      <point x="197" y="179" type="line"/>
      <point x="200" y="182" type="line"/>
      <point x="202" y="185" type="line"/>
      <point x="204" y="188" type="line"/>
      <point x="206" y="190" type="line"/>
      <point x="208" y="193" type="line"/>
      <point x="208" y="194" type="line"/>
      <point x="209" y="195" type="line"/>
      <point x="210" y="196" type="line"/>
      <point x="210" y="196" type="line"/>
      <point x="210" y="197" type="line"/>
      <point x="210" y="198" type="line"/>
      <point x="210" y="197" type="line"/>
      <point x="211" y="193" type="line"/>
      <point x="211" y="183" type="line"/>
      <point x="211" y="179" type="line"/>
      <point x="211" y="168" type="line"/>
      <point x="211" y="158" type="line"/>
      <point x="211" y="149" type="line"/>
      <point x="211" y="139" type="line"/>
      <point x="211" y="128" type="line"/>
      <point x="212" y="118" type="line"/>
      <point x="213" y="109" type="line"/>
      <point x="215" y="100" type="line"/>
      <point x="216" y="97" type="line"/>
      <point x="220" y="87" type="line"/>
      <point x="221" y="84" type="line"/>
      <point x="224" y="80" type="line"/>
      <point x="227" y="76" type="line"/>
      <point x="230" y="72" type="line"/>
      <point x="234" y="69" type="line"/>
      <point x="238" y="66" type="line"/>
      <point x="242" y="66" type="line"/>
      <point x="248" y="66" type="line"/>
      <point x="261" y="66" type="line"/>
      <point x="265" y="66" type="line"/>
      <point x="277" y="69" type="line"/>
      <point x="284" y="76" type="line"/>
      <point x="288" y="79" type="line"/>
      <point x="301" y="88" type="line"/>
      <point x="302" y="89" type="line"/>
      <point x="307" y="97" type="line"/>
      <point x="310" y="101" type="line"/>
      <point x="313" y="105" type="line"/>
      <point x="315" y="108" type="line"/>
      <point x="315" y="108" type="line"/>
    </contour>
  </outline>
</glyph>
<glyph name="r" format="1">
  <advance width="268"/>
  <unicode hex="0072"/>
  <outline>
    <contour>
      <point x="170" y="217" type="move"/>
      <point x="172" y="205" type="line"/>
      <point x="174" y="197" type="line"/>
      <point x="175" y="187" type="line"/>
      <point x="177" y="178" type="line"/>
      <point x="178" y="168" type="line"/>
      <point x="178" y="165" type="line"/>
      <point x="179" y="155" type="line"/>
      <point x="179" y="151" type="line"/>
      <point x="179" y="141" type="line"/>
      <point x="179" y="139" type="line"/>
      <point x="179" y="136" type="line"/>
      <point x="179" y="133" type="line"/>
      <point x="179" y="131" type="line"/>
      <point x="179" y="130" type="line"/>
      <point x="179" y="130" type="line"/>
      <point x="179" y="129" type="line"/>
      <point x="179" y="137" type="line"/>
      <point x="179" y="141" type="line"/>
      <point x="178" y="152" type="line"/>
      <point x="177" y="156" type="line"/>
      <point x="176" y="168" type="line"/>
      <point x="175" y="173" type="line"/>
      <point x="175" y="185" type="line"/>
      <point x="175" y="188" type="line"/>
      <point x="175" y="198" type="line"/>
      <point x="175" y="202" type="line"/>
      <point x="175" y="212" type="line"/>
      <point x="175" y="215" type="line"/>
      <point x="175" y="218" type="line"/>
      <point x="175" y="222" type="line"/>
      <point x="177" y="226" type="line"/>
      <point x="179" y="230" type="line"/>
      <point x="182" y="234" type="line"/>
      <point x="186" y="237" type="line"/>
      <point x="197" y="240" type="line"/>
      <point x="201" y="241" type="line"/>
      <point x="215" y="242" type="line"/>
      <point x="220" y="242" type="line"/>
      <point x="235" y="242" type="line"/>
      <point x="236" y="242" type="line"/>
      <point x="249" y="242" type="line"/>
      <point x="253" y="242" type="line"/>
      <point x="258" y="241" type="line"/>
      <point x="263" y="239" type="line"/>
      <point x="268" y="237" type="line"/>
      <point x="272" y="235" type="line"/>
      <point x="273" y="235" type="line"/>
      <point x="277" y="233" type="line"/>
      <point x="278" y="232" type="line"/>
      <point x="279" y="232" type="line"/>
      <point x="279" y="232" type="line"/>
    </contour>
  </outline>
</glyph>
<glyph name="s" format="1">
  <advance width="268"/>
  <unicode hex="0073"/>
  <outline>
    <contour>
      <point x="257" y="217" type="move"/>
      <point x="260" y="224" type="line"/>
      <point x="262" y="227" type="line"/>
      <point x="265" y="237" type="line"/>
      <point x="266" y="240" type="line"/>
      <point x="268" y="245" type="line"/>
      <point x="269" y="255" type="line"/>
      <point x="270" y="259" type="line"/>
      <point x="270" y="268" type="line"/>
      <point x="270" y="270" type="line"/>
      <point x="270" y="274" type="line"/>
      <point x="270" y="278" type="line"/>
      <point x="270" y="281" type="line"/>
      <point x="268" y="284" type="line"/>
      <point x="265" y="288" type="line"/>
      <point x="262" y="290" type="line"/>
      <point x="257" y="291" type="line"/>
      <point x="245" y="291" type="line"/>
      <point x="241" y="291" type="line"/>
      <point x="228" y="291" type="line"/>
      <point x="223" y="292" type="line"/>
      <point x="211" y="290" type="line"/>
      <point x="206" y="288" type="line"/>
      <point x="199" y="284" type="line"/>
      <point x="194" y="280" type="line"/>
      <point x="187" y="272" type="line"/>
      <point x="183" y="269" type="line"/>
      <point x="179" y="265" type="line"/>
      <point x="174" y="257" type="line"/>
      <point x="172" y="255" type="line"/>
      <point x="170" y="245" type="line"/>
      <point x="170" y="242" type="line"/>
      <point x="170" y="234" type="line"/>
      <point x="170" y="231" type="line"/>
      <point x="172" y="221" type="line"/>
      <point x="175" y="217" type="line"/>
      <point x="190" y="204" type="line"/>
      <point x="195" y="200" type="line"/>
      <point x="212" y="189" type="line"/>
      <point x="216" y="187" type="line"/>
      <point x="231" y="177" type="line"/>
      <point x="236" y="174" type="line"/>
      <point x="241" y="171" type="line"/>
      <point x="255" y="161" type="line"/>
      <point x="258" y="158" type="line"/>
      <point x="262" y="155" type="line"/>
      <point x="267" y="151" type="line"/>
      <point x="271" y="147" type="line"/>
      <point x="273" y="143" type="line"/>
      <point x="274" y="139" type="line"/>
      <point x="274" y="129" type="line"/>
      <point x="274" y="128" type="line"/>
      <point x="274" y="125" type="line"/>
      <point x="272" y="120" type="line"/>
      <point x="268" y="116" type="line"/>
      <point x="257" y="111" type="line"/>
      <point x="253" y="108" type="line"/>
      <point x="240" y="104" type="line"/>
      <point x="235" y="102" type="line"/>
      <point x="222" y="100" type="line"/>
      <point x="217" y="99" type="line"/>
      <point x="204" y="99" type="line"/>
      <point x="203" y="99" type="line"/>
      <point x="197" y="99" type="line"/>
      <point x="191" y="101" type="line"/>
      <point x="185" y="102" type="line"/>
      <point x="180" y="104" type="line"/>
      <point x="176" y="106" type="line"/>
      <point x="174" y="107" type="line"/>
      <point x="174" y="107" type="line"/>
    </contour>
  </outline>
</glyph>
<glyph name="t" format="1">
  <advance width="268"/>
  <unicode hex="0074"/>
  <outline>
    <contour>
      <point x="189" y="274" type="move"/>
      <point x="188" y="266" type="line"/>
      <point x="188" y="262" type="line"/>
      <point x="189" y="251" type="line"/>
      <point x="190" y="242" type="line"/>
      <point x="191" y="233" type="line"/>
      <point x="191" y="223" type="line"/>
      <point x="191" y="213" type="line"/>
      <point x="192" y="203" type="line"/>
      <point x="192" y="192" type="line"/>
      <point x="192" y="181" type="line"/>
      <point x="192" y="170" type="line"/>
      <point x="192" y="159" type="line"/>
      <point x="192" y="149" type="line"/>
      <point x="192" y="138" type="line"/>
      <point x="192" y="129" type="line"/>
      <point x="192" y="120" type="line"/>
      <point x="192" y="116" type="line"/>
      <point x="192" y="103" type="line"/>
      <point x="193" y="99" type="line"/>
      <point x="194" y="88" type="line"/>
      <point x="194" y="87" type="line"/>
      <point x="197" y="78" type="line"/>
      <point x="198" y="75" type="line"/>
      <point x="201" y="71" type="line"/>
      <point x="204" y="67" type="line"/>
      <point x="207" y="64" type="line"/>
      <point x="210" y="61" type="line"/>
      <point x="214" y="59" type="line"/>
      <point x="217" y="58" type="line"/>
      <point x="221" y="57" type="line"/>
      <point x="225" y="57" type="line"/>
      <point x="230" y="57" type="line"/>
      <point x="234" y="57" type="line"/>
      <point x="238" y="56" type="line"/>
      <point x="242" y="57" type="line"/>
      <point x="245" y="57" type="line"/>
      <point x="245" y="57" type="line"/>
    </contour>
    <contour>
      <point x="215" y="182" type="move"/>
      <point x="213" y="182" type="line"/>
      <point x="208" y="182" type="line"/>
      <point x="194" y="182" type="line"/>
      <point x="190" y="182" type="line"/>
      <point x="185" y="182" type="line"/>
      <point x="180" y="182" type="line"/>
      <point x="167" y="182" type="line"/>
      <point x="166" y="182" type="line"/>
      <point x="161" y="182" type="line"/>
      <point x="157" y="182" type="line"/>
      <point x="153" y="182" type="line"/>
      <point x="153" y="182" type="line"/>
    </contour>
  </outline>
</glyph>
<glyph name="u" format="1">
  <advance width="268"/>
  <unicode hex="0075"/>
  <outline>
    <contour>
      <point x="155" y="233" type="move"/>
      <point x="153" y="223" type="line"/>
      <point x="152" y="219" type="line"/>
      <point x="151" y="209" type="line"/>
      <point x="150" y="206" type="line"/>
      <point x="148" y="195" type="line"/>
      <point x="147" y="192" type="line"/>
      <point x="146" y="182" type="line"/>
      <point x="145" y="178" type="line"/>
      <point x="145" y="169" type="line"/>
      <point x="145" y="167" type="line"/>
      <point x="145" y="162" type="line"/>
      <point x="145" y="153" type="line"/>
      <point x="145" y="151" type="line"/>
      <point x="145" y="148" type="line"/>
      <point x="145" y="144" type="line"/>
      <point x="145" y="140" type="line"/>
      <point x="146" y="136" type="line"/>
      <point x="147" y="132" type="line"/>
      <point x="149" y="129" type="line"/>
      <point x="150" y="126" type="line"/>
      <point x="153" y="123" type="line"/>
      <point x="155" y="120" type="line"/>
      <point x="157" y="118" type="line"/>
      <point x="159" y="116" type="line"/>
      <point x="162" y="115" type="line"/>
      <point x="165" y="114" type="line"/>
      <point x="166" y="113" type="line"/>
      <point x="170" y="112" type="line"/>
      <point x="173" y="112" type="line"/>
      <point x="176" y="112" type="line"/>
      <point x="180" y="112" type="line"/>
      <point x="184" y="111" type="line"/>
      <point x="188" y="112" type="line"/>
      <point x="192" y="114" type="line"/>
      <point x="196" y="116" type="line"/>
      <point x="200" y="119" type="line"/>
      <point x="204" y="122" type="line"/>
      <point x="206" y="125" type="line"/>
      <point x="209" y="129" type="line"/>
      <point x="211" y="133" type="line"/>
      <point x="214" y="142" type="line"/>
      <point x="214" y="145" type="line"/>
      <point x="216" y="148" type="line"/>
      <point x="217" y="152" type="line"/>
      <point x="218" y="156" type="line"/>
      <point x="219" y="160" type="line"/>
      <point x="219" y="163" type="line"/>
      <point x="219" y="167" type="line"/>
      <point x="219" y="171" type="line"/>
      <point x="219" y="174" type="line"/>
      <point x="219" y="178" type="line"/>
      <point x="219" y="181" type="line"/>
      <point x="219" y="184" type="line"/>
      <point x="219" y="187" type="line"/>
      <point x="219" y="190" type="line"/>
      <point x="219" y="192" type="line"/>
      <point x="219" y="194" type="line"/>
      <point x="219" y="196" type="line"/>
      <point x="219" y="198" type="line"/>
      <point x="219" y="199" type="line"/>
      <point x="219" y="200" type="line"/>
      <point x="219" y="201" type="line"/>
      <point x="219" y="202" type="line"/>
      <point x="219" y="202" type="line"/>
      <point x="219" y="202" type="line"/>
      <point x="219" y="201" type="line"/>
      <point x="219" y="201" type="line"/>
      <point x="219" y="200" type="line"/>
      <point x="219" y="200" type="line"/>
      <point x="219" y="197" type="line"/>
      <point x="219" y="195" type="line"/>
      <point x="219" y="193" type="line"/>
      <point x="219" y="190" type="line"/>
      <point x="219" y="187" type="line"/>
      <point x="219" y="184" type="line"/>
      <point x="219" y="180" type="line"/>
      <point x="219" y="177" type="line"/>
      <point x="219" y="173" type="line"/>
      <point x="219" y="169" type="line"/>
      <point x="219" y="165" type="line"/>
      <point x="219" y="161" type="line"/>
      <point x="219" y="157" type="line"/>
      <point x="219" y="153" type="line"/>
      <point x="219" y="149" type="line"/>
      <point x="219" y="145" type="line"/>
      <point x="220" y="141" type="line"/>
      <point x="220" y="138" type="line"/>
      <point x="220" y="135" type="line"/>
      <point x="221" y="133" type="line"/>
      <point x="222" y="131" type="line"/>
      <point x="222" y="129" type="line"/>
      <point x="223" y="127" type="line"/>
      <point x="224" y="126" type="line"/>
      <point x="225" y="124" type="line"/>
      <point x="225" y="123" type="line"/>
      <point x="226" y="122" type="line"/>
      <point x="227" y="120" type="line"/>
      <point x="227" y="119" type="line"/>
      <point x="228" y="118" type="line"/>
      <point x="230" y="116" type="line"/>
      <point x="230" y="115" type="line"/>
      <point x="231" y="113" type="line"/>
      <point x="232" y="112" type="line"/>
      <point x="233" y="111" type="line"/>
      <point x="234" y="111" type="line"/>
      <point x="237" y="109" type="line"/>
      <point x="238" y="108" type="line"/>
      <point x="239" y="108" type="line"/>
      <point x="241" y="108" type="line"/>
      <point x="242" y="108" type="line"/>
      <point x="244" y="108" type="line"/>
      <point x="247" y="108" type="line"/>
      <point x="248" y="108" type="line"/>
      <point x="249" y="108" type="line"/>
      <point x="250" y="108" type="line"/>
      <point x="251" y="108" type="line"/>
      <point x="251" y="108" type="line"/>
    </contour>
  </outline>
</glyph>
<glyph name="v" format="1">
  <advance width="268"/>
  <unicode hex="0076"/>
  <outline>
    <contour>
      <point x="253" y="218" type="move"/>
      <point x="252" y="207" type="line"/>
      <point x="251" y="198" type="line"/>
      <point x="250" y="189" type="line"/>
      <point x="247" y="179" type="line"/>
      <point x="244" y="168" type="line"/>
      <point x="241" y="158" type="line"/>
      <point x="238" y="148" type="line"/>
      <point x="234" y="139" type="line"/>
      <point x="233" y="136" type="line"/>
      <point x="230" y="126" type="line"/>
      <point x="228" y="122" type="line"/>
      <point x="225" y="113" type="line"/>
      <point x="223" y="110" type="line"/>
      <point x="222" y="108" type="line"/>
      <point x="220" y="105" type="line"/>
      <point x="219" y="102" type="line"/>
      <point x="218" y="102" type="line"/>
      <point x="217" y="101" type="line"/>
      <point x="217" y="100" type="line"/>
      <point x="216" y="100" type="line"/>
      <point x="214" y="103" type="line"/>
      <point x="211" y="107" type="line"/>
      <point x="207" y="117" type="line"/>
      <point x="204" y="121" type="line"/>
      <point x="200" y="133" type="line"/>
      <point x="197" y="137" type="line"/>
      <point x="192" y="150" type="line"/>
      <point x="188" y="159" type="line"/>
      <point x="184" y="163" type="line"/>
      <point x="178" y="175" type="line"/>
      <point x="175" y="180" type="line"/>
      <point x="171" y="184" type="line"/>
      <point x="166" y="194" type="line"/>
      <point x="163" y="197" type="line"/>
      <point x="159" y="202" type="line"/>
      <point x="155" y="210" type="line"/>
      <point x="153" y="212" type="line"/>
      <point x="151" y="215" type="line"/>
      <point x="148" y="218" type="line"/>
      <point x="146" y="221" type="line"/>
      <point x="145" y="223" type="line"/>
      <point x="144" y="225" type="line"/>
      <point x="142" y="227" type="line"/>
      <point x="141" y="228" type="line"/>
      <point x="140" y="229" type="line"/>
      <point x="140" y="230" type="line"/>
      <point x="139" y="230" type="line"/>
      <point x="139" y="230" type="line"/>
    </contour>
  </outline>
</glyph>
